1 6 -29.999140 -206.000100 -68.000080 1.000000 0.000000 0.000000 0.000000 0.000000 -0.999999 0.000000 1.000000 0.000000 3070b.dat
1 6 30.000860 -206.000200 -68.000080 1.000000 0.000000 0.000000 0.000000 0.000000 -1.000000 0.000000 1.000000 0.000000 3070b.dat
1 15 50.000860 -206.000200 -68.000080 1.000000 0.000000 0.000000 0.000000 0.000000 -0.999999 0.000000 1.000000 0.000000 3070b.dat
1 15 -49.999130 -206.000200 -68.000080 1.000000 0.000000 0.000000 0.000000 0.000000 -0.999999 0.000000 1.000000 0.000000 3070b.dat