1 19 0.000850 -166.000300 -68.000080 1.000000 0.000000 0.000000 0.000000 0.000000 -1.000000 0.000000 1.000000 0.000000 3069b.dat
1 19 -39.999140 -166.000300 -68.000080 1.000000 0.000000 0.000000 0.000000 0.000000 -1.000000 0.000000 1.000000 0.000000 3069b.dat
1 19 40.000860 -165.999000 -68.000080 1.000000 0.000000 0.000000 0.000000 0.000000 -0.999992 0.000000 0.999992 0.000000 3069b.dat
1 0 0.000840 -146.000000 -76.000080 -1.000000 0.000000 0.000000 0.000000 0.000000 1.000000 0.000000 1.000000 0.000000 48336.dat
1 19 0.000850 -136.000000 -40.000080 1.000000 0.000000 0.000000 0.000000 1.000000 0.000000 0.000000 0.000000 1.000000 3795.dat
1 19 -67.999130 -156.000000 -30.000070 0.000000 1.000000 0.000000 0.000000 0.000000 -1.000000 -1.000000 0.000000 0.000000 26603.dat
1 19 68.000850 -156.000000 -30.000070 0.000000 -1.000000 0.000000 0.000000 0.000000 1.000000 -1.000000 0.000000 0.000000 26603.dat
1 19 -39.999160 -145.999900 -67.999860 1.000000 0.000000 0.000000 0.000000 0.000000 -1.000000 0.000000 1.000000 0.000000 3069b.dat
1 19 40.000860 -145.999000 -68.000140 1.000000 0.000000 0.000000 0.000000 0.000000 -1.000000 0.000000 1.000000 0.000000 3069b.dat
1 0 0.000840 -146.000000 -68.000080 1.000000 0.000000 0.000000 0.000000 0.000000 -1.000000 0.000000 1.000000 0.000000 32028.dat