1 SKIN 0.000000 -136.000000 40.000230 1.000000 0.000000 0.000000 0.000000 1.000000 0.000000 0.000000 0.000000 1.000000 3795.dat
1 SKIN 0.000000 -136.000000 0.000000 1.000000 0.000000 0.000000 0.000000 1.000000 0.000000 0.000000 0.000000 1.000000 3795.dat
1 0 0.000850 -136.000000 -40.000080 1.000000 0.000000 0.000000 0.000000 1.000000 0.000000 0.000000 0.000000 1.000000 3795.dat
1 SKIN -49.999980 -176.000000 20.000240 0.000000 0.000000 1.000000 0.000000 1.000000 0.000000 -1.000000 0.000000 0.000000 22885.dat
1 SKIN 40.000010 -176.000000 50.000240 -1.000000 0.000000 0.000000 0.000000 1.000000 0.000000 0.000000 0.000000 -1.000000 22885.dat
1 SKIN 0.000000 -176.000000 50.000240 -1.000000 0.000000 0.000000 0.000000 1.000000 0.000000 0.000000 0.000000 -1.000000 22885.dat
1 SKIN -39.999980 -176.000000 50.000240 -1.000000 0.000000 0.000000 0.000000 1.000000 0.000000 0.000000 0.000000 -1.000000 22885.dat
1 SKIN 50.000020 -176.000000 20.000240 0.000000 0.000000 -1.000000 0.000000 1.000000 0.000000 1.000000 0.000000 0.000000 22885.dat
1 SKIN -49.999980 -176.000000 -19.999760 0.000000 0.000000 1.000000 0.000000 1.000000 0.000000 -1.000000 0.000000 0.000000 22885.dat
1 SKIN 50.000020 -176.000000 -19.999760 0.000001 0.000000 -0.999999 0.000000 1.000000 0.000000 0.999999 0.000000 0.000001 22885.dat
1 SKIN 40.000010 -175.999900 -49.999760 1.000000 0.000000 0.000001 0.000000 1.000000 0.000000 -0.000001 0.000000 1.000000 22885.dat
1 SKIN 0.000000 -176.000000 -49.999760 1.000000 0.000000 0.000001 0.000000 1.000000 0.000000 -0.000001 0.000000 1.000000 22885.dat
1 SKIN -39.999980 -175.999900 -49.999520 1.000000 0.000000 0.000001 0.000000 1.000000 0.000000 -0.000001 0.000000 1.000000 22885.dat
1 SKIN 0.000850 -166.000300 -68.000080 1.000000 0.000000 0.000000 0.000000 0.000000 -1.000000 0.000000 1.000000 0.000000 3069b.dat
1 SKIN -39.999140 -166.000300 -68.000080 1.000000 0.000000 0.000000 0.000000 0.000000 -1.000000 0.000000 1.000000 0.000000 3069b.dat
1 SKIN 40.000860 -165.999000 -68.000080 1.000000 0.000000 0.000000 0.000000 0.000000 -0.999992 0.000000 0.999992 0.000000 3069b.dat
1 0 40.000860 -146.000100 -68.000080 1.000000 0.000000 0.000000 0.000000 0.000000 -0.999999 0.000000 1.000000 0.000000 2412b.dat
1 0 -39.999140 -146.000100 -68.000080 1.000000 0.000000 0.000000 0.000000 0.000000 -0.999999 0.000000 1.000000 0.000000 2412b.dat
1 0 0.000840 -146.000000 -68.000100 1.000000 0.000000 0.000000 0.000000 0.000000 -1.000000 0.000000 1.000000 0.000000 3023b.dat
1 0 0.000840 -146.000000 -76.000100 -1.000000 0.000000 0.000000 0.000000 0.000000 1.000000 0.000000 1.000000 0.000000 48336.dat
1 0 68.000850 -166.000000 -10.000070 0.000000 -1.000000 0.000000 -1.000000 0.000000 0.000000 0.000000 0.000000 -1.000000 3070b.dat
1 0 68.000850 -166.000000 -40.000080 0.000000 -1.000000 0.000000 0.000000 0.000000 -1.000000 1.000000 0.000000 0.000000 2412b.dat
1 0 -67.999140 -166.000000 -40.000080 0.000000 1.000000 0.000000 0.000000 0.000000 -1.000000 -1.000000 0.000000 0.000000 2412b.dat
1 0 -67.999140 -166.000000 -10.000070 0.000000 1.000000 0.000000 -1.000000 0.000000 0.000000 0.000000 0.000000 1.000000 3070b.dat
1 0 -67.999140 -146.000000 -40.000080 0.000000 1.000000 0.000000 0.000000 0.000000 -1.000000 -1.000000 0.000000 0.000000 2412b.dat
1 0 -67.999140 -146.000000 -10.000070 0.000001 1.000000 0.000000 1.000000 0.000000 0.000000 0.000000 0.000000 -1.000000 25269.dat
1 0 68.000850 -146.000000 -40.000080 0.000000 -1.000000 0.000000 0.000000 0.000000 -1.000000 1.000000 0.000000 0.000000 2412b.dat
1 0 68.000850 -146.000000 -10.000070 -0.000001 -1.000000 0.000000 0.000000 0.000000 -1.000000 1.000000 -0.000001 0.000000 25269.dat
