1 SKIN 0.000000 -136.000000 40.000230 1.000000 0.000000 0.000000 0.000000 1.000000 0.000000 0.000000 0.000000 1.000000 3795.dat
1 SKIN 0.000000 -136.000000 0.000000 1.000000 0.000000 0.000000 0.000000 1.000000 0.000000 0.000000 0.000000 1.000000 3795.dat
1 0 0.000850 -136.000000 -40.000080 1.000000 0.000000 0.000000 0.000000 1.000000 0.000000 0.000000 0.000000 1.000000 3795.dat
1 SKIN -49.999980 -176.000000 20.000240 0.000000 0.000000 1.000000 0.000000 1.000000 0.000000 -1.000000 0.000000 0.000000 22885.dat
1 SKIN 40.000010 -176.000000 50.000240 -1.000000 0.000000 0.000000 0.000000 1.000000 0.000000 0.000000 0.000000 -1.000000 22885.dat
1 SKIN 0.000000 -176.000000 50.000240 -1.000000 0.000000 0.000000 0.000000 1.000000 0.000000 0.000000 0.000000 -1.000000 22885.dat
1 SKIN -39.999980 -176.000000 50.000240 -1.000000 0.000000 0.000000 0.000000 1.000000 0.000000 0.000000 0.000000 -1.000000 22885.dat
1 SKIN 50.000020 -176.000000 20.000240 0.000000 0.000000 -1.000000 0.000000 1.000000 0.000000 1.000000 0.000000 0.000000 22885.dat
1 SKIN -49.999980 -176.000000 -19.999760 0.000000 0.000000 1.000000 0.000000 1.000000 0.000000 -1.000000 0.000000 0.000000 22885.dat
1 SKIN 50.000020 -176.000000 -19.999760 0.000001 0.000000 -0.999999 0.000000 1.000000 0.000000 0.999999 0.000000 0.000001 22885.dat
1 SKIN 40.000010 -175.999900 -49.999760 1.000000 0.000000 0.000001 0.000000 1.000000 0.000000 -0.000001 0.000000 1.000000 22885.dat
1 SKIN 0.000000 -176.000000 -49.999760 1.000000 0.000000 0.000001 0.000000 1.000000 0.000000 -0.000001 0.000000 1.000000 22885.dat
1 SKIN -39.999980 -175.999900 -49.999520 1.000000 0.000000 0.000001 0.000000 1.000000 0.000000 -0.000001 0.000000 1.000000 22885.dat
1 SKIN 40.000860 -165.999000 -68.000080 1.000000 0.000000 0.000000 0.000000 0.000000 -0.999992 0.000000 0.999992 0.000000 3069b.dat
1 0 -39.999990 -145.999900 -67.999500 1.000000 0.000000 0.000000 0.000000 0.000000 -1.000000 0.000000 1.000000 0.000000 2412b.dat
1 SKIN -39.999990 -165.999900 -67.999520 1.000000 0.000000 0.000000 0.000000 0.000000 -1.000000 0.000000 1.000000 0.000000 3069b.dat
1 0 -0.000010 -146.000000 -67.999750 1.000000 0.000000 0.000000 0.000000 0.000000 -1.000000 0.000000 1.000000 0.000000 2412b.dat
1 0 40.000000 -145.999900 -67.999750 1.000000 0.000000 0.000000 0.000000 0.000000 -1.000000 0.000000 1.000000 0.000000 2412b.dat
1 0 68.000000 -146.000000 -39.999760 0.000000 -1.000000 0.000000 0.000000 0.000000 -1.000000 1.000000 0.000000 0.000000 2412b.dat
1 0 68.000000 -166.000000 -19.999760 0.000000 -1.000000 0.000000 0.000000 0.000000 -1.000000 1.000000 0.000000 0.000000 2412b.dat
1 0 68.000020 -146.000000 -9.999780 0.000000 -1.000000 0.000000 1.000000 0.000000 0.000000 0.000000 0.000000 1.000000 3070b.dat
1 0 -67.999980 -146.000000 -39.999760 0.000000 1.000000 0.000000 0.000000 0.000000 -1.000000 -1.000000 0.000000 0.000000 2412b.dat
1 0 -67.999980 -166.000000 -19.999760 0.000000 1.000000 0.000000 0.000000 0.000000 -1.000000 -1.000000 0.000000 0.000000 2412b.dat
1 0 -67.999980 -146.000000 -9.999760 0.000000 1.000000 0.000000 1.000000 0.000000 0.000000 0.000000 0.000000 -1.000000 3070b.dat
1 SKIN -0.000010 -166.000000 -67.999780 1.000000 0.000000 0.000000 0.000000 0.000000 -1.000000 0.000000 1.000000 0.000000 3023b.dat
1 0 9.999990 -166.000000 -75.999780 0.000000 0.000000 -1.000000 -1.000000 0.000000 0.000000 0.000000 1.000000 0.000000 25269.dat
1 0 -10.000010 -166.000000 -75.999790 -1.000000 0.000000 0.000000 0.000000 0.000000 1.000000 0.000000 1.000000 0.000000 25269.dat
