1 SKIN 0.000000 -136.000000 40.000230 1.000000 0.000000 0.000000 0.000000 1.000000 0.000000 0.000000 0.000000 1.000000 3795.dat
1 SKIN 0.000000 -136.000000 0.000000 1.000000 0.000000 0.000000 0.000000 1.000000 0.000000 0.000000 0.000000 1.000000 3795.dat
1 SKIN -49.999980 -176.000000 20.000240 0.000000 0.000000 1.000000 0.000000 1.000000 0.000000 -1.000000 0.000000 0.000000 22885.dat
1 SKIN 40.000010 -176.000000 50.000240 -1.000000 0.000000 0.000000 0.000000 1.000000 0.000000 0.000000 0.000000 -1.000000 22885.dat
1 SKIN 0.000000 -176.000000 50.000240 -1.000000 0.000000 0.000000 0.000000 1.000000 0.000000 0.000000 0.000000 -1.000000 22885.dat
1 SKIN -39.999980 -176.000000 50.000240 -1.000000 0.000000 0.000000 0.000000 1.000000 0.000000 0.000000 0.000000 -1.000000 22885.dat
1 SKIN 50.000020 -176.000000 20.000240 0.000000 0.000000 -1.000000 0.000000 1.000000 0.000000 1.000000 0.000000 0.000000 22885.dat
1 SKIN -49.999980 -176.000000 -19.999760 0.000000 0.000000 1.000000 0.000000 1.000000 0.000000 -1.000000 0.000000 0.000000 22885.dat
1 SKIN 50.000020 -176.000000 -19.999760 0.000001 0.000000 -0.999999 0.000000 1.000000 0.000000 0.999999 0.000000 0.000001 22885.dat
1 SKIN 40.000010 -175.999900 -49.999760 1.000000 0.000000 0.000001 0.000000 1.000000 0.000000 -0.000001 0.000000 1.000000 22885.dat
1 SKIN -39.999980 -175.999900 -49.999520 1.000000 0.000000 0.000001 0.000000 1.000000 0.000000 -0.000001 0.000000 1.000000 22885.dat
1 SKIN -39.999140 -166.000300 -68.000080 1.000000 0.000000 0.000000 0.000000 0.000000 -1.000000 0.000000 1.000000 0.000000 3069b.dat
1 SKIN 40.000860 -165.999000 -68.000080 1.000000 0.000000 0.000000 0.000000 0.000000 -0.999992 0.000000 0.999992 0.000000 3069b.dat
1 SKIN -67.999130 -156.000000 -30.000070 0.000000 1.000000 0.000000 0.000000 0.000000 -1.000000 -1.000000 0.000000 0.000000 26603.dat
1 SKIN 68.000850 -156.000000 -30.000070 0.000000 -1.000000 0.000000 0.000000 0.000000 1.000000 -1.000000 0.000000 0.000000 26603.dat
1 SKIN 0.000010 -143.999900 0.000230 1.000000 0.000000 0.000000 0.000000 1.000000 0.000000 0.000000 0.000000 1.000000 3031.dat
1 SKIN -0.000010 -160.000000 -49.999770 1.000000 0.000000 0.000000 0.000000 1.000000 0.000000 0.000000 0.000000 1.000000 3023b.dat
1 0 -0.000010 -168.000000 -49.999770 1.000000 0.000000 0.000000 0.000000 1.000000 0.000000 0.000000 0.000000 1.000000 32028.dat
1 SKIN 0.000020 -135.999900 -39.999510 1.000000 0.000000 0.000000 0.000000 1.000000 0.000000 0.000000 0.000000 1.000000 3795.dat
1 SKIN -0.000010 -176.000000 -49.999770 1.000000 0.000000 0.000000 0.000000 1.000000 0.000000 0.000000 0.000000 1.000000 3023b.dat
1 SKIN 0.000020 -143.999900 -49.999510 1.000000 0.000000 0.000000 0.000000 1.000000 0.000000 0.000000 0.000000 1.000000 3023b.dat
1 SKIN -0.000010 -152.000000 -49.999770 1.000000 0.000000 0.000000 0.000000 1.000000 0.000000 0.000000 0.000000 1.000000 3023b.dat
1 SKIN 0.000000 -145.999900 -67.999780 1.000000 0.000000 0.000000 0.000000 0.000000 -1.000000 0.000000 1.000000 0.000000 6636.dat
