1 SKIN 0.000000 -136.000000 40.000230 1.000000 0.000000 0.000000 0.000000 1.000000 0.000000 0.000000 0.000000 1.000000 3795.dat
1 SKIN 0.000000 -136.000000 0.000000 1.000000 0.000000 0.000000 0.000000 1.000000 0.000000 0.000000 0.000000 1.000000 3795.dat
1 0 0.000850 -136.000000 -40.000080 1.000000 0.000000 0.000000 0.000000 1.000000 0.000000 0.000000 0.000000 1.000000 3795.dat
1 SKIN -49.999980 -176.000000 20.000240 0.000000 0.000000 1.000000 0.000000 1.000000 0.000000 -1.000000 0.000000 0.000000 22885.dat
1 SKIN 40.000010 -176.000000 50.000240 -1.000000 0.000000 0.000000 0.000000 1.000000 0.000000 0.000000 0.000000 -1.000000 22885.dat
1 SKIN 0.000000 -176.000000 50.000240 -1.000000 0.000000 0.000000 0.000000 1.000000 0.000000 0.000000 0.000000 -1.000000 22885.dat
1 SKIN -39.999980 -176.000000 50.000240 -1.000000 0.000000 0.000000 0.000000 1.000000 0.000000 0.000000 0.000000 -1.000000 22885.dat
1 SKIN 50.000020 -176.000000 20.000240 0.000000 0.000000 -1.000000 0.000000 1.000000 0.000000 1.000000 0.000000 0.000000 22885.dat
1 SKIN -49.999980 -176.000000 -19.999760 0.000000 0.000000 1.000000 0.000000 1.000000 0.000000 -1.000000 0.000000 0.000000 22885.dat
1 SKIN 50.000020 -176.000000 -19.999760 0.000001 0.000000 -0.999999 0.000000 1.000000 0.000000 0.999999 0.000000 0.000001 22885.dat
1 SKIN 40.000010 -175.999900 -49.999760 1.000000 0.000000 0.000001 0.000000 1.000000 0.000000 -0.000001 0.000000 1.000000 22885.dat
1 SKIN 0.000000 -176.000000 -49.999760 1.000000 0.000000 0.000001 0.000000 1.000000 0.000000 -0.000001 0.000000 1.000000 22885.dat
1 SKIN -39.999980 -175.999900 -49.999520 1.000000 0.000000 0.000001 0.000000 1.000000 0.000000 -0.000001 0.000000 1.000000 22885.dat
1 SKIN 0.000850 -166.000300 -68.000080 1.000000 0.000000 0.000000 0.000000 0.000000 -1.000000 0.000000 1.000000 0.000000 3069b.dat
1 SKIN -39.999140 -166.000300 -68.000080 1.000000 0.000000 0.000000 0.000000 0.000000 -1.000000 0.000000 1.000000 0.000000 3069b.dat
1 SKIN 40.000860 -165.999000 -68.000080 1.000000 0.000000 0.000000 0.000000 0.000000 -0.999992 0.000000 0.999992 0.000000 3069b.dat
1 0 0.000840 -146.000000 -76.000080 -1.000000 0.000000 0.000000 0.000000 0.000000 1.000000 0.000000 1.000000 0.000000 48336.dat
1 0 0.000840 -136.000000 -68.000080 1.000000 0.000000 0.000000 0.000000 0.000000 -1.000000 0.000000 1.000000 0.000000 3022.dat
1 0 -9.999160 -116.000000 -60.000080 1.000000 0.000000 0.000000 0.000000 0.000000 -1.000000 0.000000 1.000000 0.000000 11477.dat
1 0 10.000840 -116.000000 -60.000080 1.000000 0.000000 0.000000 0.000000 0.000000 -1.000000 0.000000 1.000000 0.000000 11477.dat
1 0 68.000000 -146.000000 -39.999760 0.000000 -1.000000 0.000000 0.000000 0.000000 1.000000 -1.000000 0.000000 0.000000 3069b.dat
1 0 -67.999970 -146.000000 -39.999760 0.000000 1.000000 0.000000 0.000000 0.000000 1.000000 1.000000 0.000000 0.000000 3069b.dat
1 0 68.000020 -156.000000 -9.999780 0.000000 -1.000000 0.000000 1.000000 0.000000 0.000000 0.000000 0.000000 1.000000 3069b.dat
1 0 -67.999980 -156.000000 -9.999760 0.000000 1.000000 0.000000 1.000000 0.000000 0.000000 0.000000 0.000000 -1.000000 3069b.dat
1 0 -67.999980 -166.000000 -29.999760 0.000000 1.000000 0.000000 -1.000000 0.000000 0.000000 0.000000 0.000000 1.000000 25269.dat
1 0 68.000000 -166.000000 -29.999760 0.000000 -1.000000 0.000000 0.000000 0.000000 1.000000 -1.000000 0.000000 0.000000 25269.dat
1 0 50.000000 -135.999900 -59.999760 1.000000 0.000000 0.000000 0.000000 0.000000 -1.000000 0.000000 1.000000 0.000000 11477.dat
1 0 -50.000000 -135.999900 -59.999520 1.000000 0.000000 0.000000 0.000000 0.000000 -1.000000 0.000000 1.000000 0.000000 11477.dat
1 0 -30.000000 -145.999900 -67.999530 -1.000000 0.000000 0.000000 0.000000 0.000000 1.000000 0.000000 1.000000 0.000000 2420.dat
1 0 30.000000 -145.999900 -67.999760 0.000000 0.000000 1.000000 1.000000 0.000000 0.000000 0.000000 1.000000 0.000000 2420.dat
1 0 30.000000 -115.999900 -59.999760 1.000000 0.000000 0.000000 0.000000 0.000000 -1.000000 0.000000 1.000000 0.000000 11477.dat
1 0 -30.000000 -115.999900 -59.999520 1.000000 0.000000 0.000000 0.000000 0.000000 -1.000000 0.000000 1.000000 0.000000 11477.dat
1 0 -30.000000 -145.999900 -75.999530 1.000000 0.000000 0.000000 0.000000 0.000000 -1.000000 0.000000 1.000000 0.000000 3070b.dat
1 0 30.000000 -145.999900 -75.999760 1.000000 0.000000 0.000000 0.000000 0.000000 -1.000000 0.000000 1.000000 0.000000 3070b.dat
