1 SKIN 30.000850 -80.000000 -30.000070 1.000000 0.000000 0.000000 0.000000 1.000000 0.000000 0.000000 0.000000 1.000000 3005.dat
1 SKIN -29.999150 -80.000000 -30.000070 1.000000 0.000000 0.000000 0.000000 1.000000 0.000000 0.000000 0.000000 1.000000 3005.dat
1 SKIN 0.000850 -80.000000 -30.000070 1.000000 0.000000 0.000000 0.000000 1.000000 0.000000 0.000000 0.000000 1.000000 86876.dat
1 SKIN 50.000860 -80.000000 -0.000070 0.000000 0.000000 -1.000000 0.000000 1.000000 0.000000 1.000000 0.000000 0.000000 3004.dat
1 0 50.000860 -104.000000 -0.000070 0.000000 0.000000 -1.000000 0.000000 1.000000 0.000000 1.000000 0.000000 0.000000 3004.dat
1 0 76.000850 -98.000000 -0.000070 0.000000 -1.000000 0.000000 0.000000 0.000000 1.000000 -1.000000 0.000000 0.000000 3023b.dat
1 0 84.000870 -98.000000 -0.000070 0.000000 -1.000000 0.000000 0.000000 0.000000 -1.000000 1.000000 0.000000 0.000000 3069b.dat
1 0 50.000860 -128.000000 -0.000070 0.000000 0.000000 -1.000000 0.000000 1.000000 0.000000 1.000000 0.000000 0.000000 11211.dat
1 SKIN -49.999130 -80.000000 -0.000070 0.000000 0.000000 1.000000 0.000000 1.000000 0.000000 -1.000000 0.000000 0.000000 3004.dat
1 0 68.000850 -98.000000 -0.000070 0.000000 -1.000000 0.000000 1.000000 0.000000 0.000000 0.000000 0.000000 1.000000 3021.dat
1 SKIN 50.000860 -80.000000 -30.000070 1.000000 0.000000 0.000000 0.000000 1.000000 0.000000 0.000000 0.000000 1.000000 3005.dat
1 SKIN 50.000860 -80.000000 29.999930 1.000000 0.000000 0.000000 0.000000 1.000000 0.000000 0.000000 0.000000 1.000000 3005.dat
1 SKIN 0.000850 -80.000000 29.999930 1.000000 0.000000 0.000000 0.000000 1.000000 0.000000 0.000000 0.000000 1.000000 3010.dat
1 0 -49.999130 -104.000000 -0.000310 -0.000001 0.000000 1.000002 0.000000 1.000000 0.000000 -1.000002 0.000000 -0.000001 3004.dat
1 0 68.000850 -118.000000 -0.000070 0.000000 -1.000000 0.000000 0.000000 0.000000 1.000000 -1.000000 0.000000 0.000000 85984.dat
1 SKIN -49.999130 -80.000000 -30.000070 1.000000 0.000000 0.000000 0.000000 1.000000 0.000000 0.000000 0.000000 1.000000 3005.dat
1 0 -75.999140 -98.000000 -0.000310 0.000000 1.000002 0.000000 0.000000 0.000000 1.000000 1.000002 0.000000 0.000000 3023b.dat
1 SKIN -49.999130 -80.000000 29.999930 1.000000 0.000000 0.000000 0.000000 1.000000 0.000000 0.000000 0.000000 1.000000 3005.dat
1 0 0.000850 -104.000000 -30.000070 1.000000 0.000000 0.000000 0.000000 1.000000 0.000000 0.000000 0.000000 1.000000 3010.dat
1 0 -83.999100 -98.000000 -0.000310 0.000000 1.000003 0.000000 0.000000 0.000000 -1.000000 -1.000003 0.000000 0.000000 3069b.dat
1 0 50.000860 -104.000000 -30.000070 1.000000 0.000000 0.000000 0.000000 1.000000 0.000000 0.000000 0.000000 1.000000 3005.dat
1 0 50.000860 -104.000000 29.999930 1.000000 0.000000 0.000000 0.000000 1.000000 0.000000 0.000000 0.000000 1.000000 3005.dat
1 0 0.000850 -104.000000 29.999930 1.000000 0.000000 0.000000 0.000000 1.000000 0.000000 0.000000 0.000000 1.000000 3010.dat
1 0 -49.999130 -128.000000 -0.000310 -0.000001 0.000000 1.000002 0.000000 1.000000 0.000000 -1.000002 0.000000 -0.000001 11211.dat
1 0 -67.999140 -98.000000 -0.000310 0.000000 1.000003 0.000000 1.000000 0.000000 0.000000 0.000000 0.000000 -1.000002 3021.dat
1 0 -49.999130 -104.000000 -30.000070 1.000000 0.000000 0.000000 0.000000 1.000000 0.000000 0.000000 0.000000 1.000000 3005.dat
1 0 -67.999140 -118.000000 -0.000310 0.000000 1.000002 0.000000 0.000000 0.000000 1.000000 1.000002 0.000000 0.000000 85984.dat
1 0 0.000850 -128.000000 29.999930 1.000000 0.000000 0.000000 0.000000 1.000000 0.000000 0.000000 0.000000 1.000000 3010.dat
1 0 -49.999130 -104.000000 29.999930 1.000000 0.000000 0.000000 0.000000 1.000000 0.000000 0.000000 0.000000 1.000000 3005.dat
1 0 0.000850 -128.000000 -30.000070 1.000000 0.000000 0.000000 0.000000 1.000000 0.000000 0.000000 0.000000 1.000000 3010.dat
1 0 50.000860 -128.000000 -30.000070 1.000000 0.000000 0.000000 0.000000 1.000000 0.000000 0.000000 0.000000 1.000000 3005.dat
1 0 50.000860 -128.000000 29.999930 1.000000 0.000000 0.000000 0.000000 1.000000 0.000000 0.000000 0.000000 1.000000 3005.dat
1 0 -49.999130 -128.000000 29.999930 1.000000 0.000000 0.000000 0.000000 1.000000 0.000000 0.000000 0.000000 1.000000 3005.dat
1 0 -49.999130 -128.000000 -30.000070 1.000000 0.000000 0.000000 0.000000 1.000000 0.000000 0.000000 0.000000 1.000000 3005.dat
1 SKIN 76.000850 -78.000000 -0.000070 0.000000 -1.000000 0.000000 0.000000 0.000000 1.000000 -1.000000 0.000000 0.000000 3023b.dat
1 SKIN -75.999140 -77.999980 -0.000290 0.000000 1.000000 0.000000 0.000000 0.000000 -1.000000 -1.000000 0.000000 0.000000 3023b.dat
1 SKIN 84.000850 -78.000000 -0.000070 0.000000 -1.000000 0.000000 0.000000 0.000000 -1.000000 1.000000 0.000000 0.000000 3069b.dat
1 SKIN -83.999140 -77.999980 -0.000290 0.000000 1.000000 0.000000 0.000000 0.000000 -1.000000 -1.000000 0.000000 0.000000 3069b.dat
