1 191 -29.999140 -226.000000 -68.000080 0.000000 0.000000 -1.000000 -1.000000 0.000000 0.000000 0.000000 1.000000 0.000000 25269.dat
1 191 50.000860 -226.000000 -68.000080 0.000000 0.000000 -1.000000 -1.000000 0.000000 0.000000 0.000000 1.000000 0.000000 25269.dat
1 191 30.000860 -226.000000 -68.000080 -1.000000 0.000000 0.000000 0.000000 0.000000 1.000000 0.000000 1.000000 0.000000 25269.dat
1 191 -49.999140 -226.000000 -68.000080 -1.000000 0.000000 0.000000 0.000000 0.000000 1.000000 0.000000 1.000000 0.000000 25269.dat
