1 70 -49.999180 -225.999800 -68.000100 0.000000 0.000000 1.000000 1.000000 0.000000 0.000000 0.000000 1.000000 0.000000 24246.dat
1 70 -29.999130 -225.999800 -68.000110 0.000000 0.000000 -1.000000 -1.000000 0.000000 0.000000 0.000000 1.000000 0.000000 24246.dat
1 70 30.000850 -225.999800 -68.000110 0.000000 0.000000 1.000000 1.000000 0.000000 0.000000 0.000000 1.000000 0.000000 24246.dat
1 70 50.000880 -225.999800 -68.000120 0.000000 0.000000 -1.000000 -1.000000 0.000000 0.000000 0.000000 1.000000 0.000000 24246.dat