1 0 -49.999140 -226.000000 -60.000080 1.000000 0.000000 0.000000 0.000000 0.000000 -1.000000 0.000000 1.000000 0.000000 35464.dat
1 0 -29.999140 -226.000000 -60.000080 1.000000 0.000000 0.000000 0.000000 0.000000 -1.000000 0.000000 1.000000 0.000000 35464.dat
1 0 30.000860 -226.000000 -60.000080 1.000000 0.000000 0.000000 0.000000 0.000000 -1.000000 0.000000 1.000000 0.000000 35464.dat
1 0 50.000860 -226.000000 -60.000080 1.000000 0.000000 0.000000 0.000000 0.000000 -1.000000 0.000000 1.000000 0.000000 35464.dat
