1 19 30.000860 -155.999800 67.999940 -1.000000 0.000000 0.000000 0.000000 0.000000 -1.000000 0.000000 -1.000000 0.000000 26603.dat
1 19 -67.999160 -156.000000 29.999930 0.000000 1.000000 0.000000 0.000000 0.000000 -1.000000 -1.000000 0.000000 0.000000 26603.dat
1 19 -67.999160 -196.000000 -30.000070 0.000000 1.000000 0.000000 0.000000 0.000000 -1.000000 -1.000000 0.000000 0.000000 26603.dat
1 19 -29.999140 -156.000000 67.999940 -1.000000 0.000000 0.000000 0.000000 0.000000 -1.000000 0.000000 -1.000000 0.000000 26603.dat
1 19 68.000850 -156.000000 29.999930 0.000000 -1.000000 0.000000 0.000000 0.000000 -1.000000 1.000000 0.000000 0.000000 26603.dat
1 19 68.000850 -196.000000 -30.000070 0.000000 -1.000000 0.000000 0.000000 0.000000 -1.000000 1.000000 0.000000 0.000000 26603.dat
1 19 -67.999140 -196.000000 30.000180 0.000000 1.000000 0.000000 0.000000 0.000000 -1.000000 -1.000000 0.000000 0.000000 26603.dat
1 19 -67.999180 -236.000000 30.000140 0.000000 1.000000 0.000000 0.000000 0.000000 -1.000000 -1.000000 0.000000 0.000000 26603.dat
1 19 -67.999140 -235.999800 -30.000070 0.000000 1.000000 0.000000 0.000000 0.000000 -1.000000 -1.000000 0.000000 0.000000 26603.dat
1 19 68.000850 -196.000000 29.999930 0.000000 -1.000000 0.000000 0.000000 0.000000 1.000000 -1.000000 0.000000 0.000000 26603.dat
1 19 68.000850 -236.000000 29.999930 0.000000 -1.000000 0.000000 0.000000 0.000000 1.000000 -1.000000 0.000000 0.000000 26603.dat
1 19 68.000880 -235.999800 -30.000080 0.000000 -1.000000 0.000000 0.000000 0.000000 1.000000 -1.000000 0.000000 0.000000 26603.dat
1 19 30.000860 -196.000000 67.999940 -1.000000 0.000000 0.000000 0.000000 0.000000 -1.000000 0.000000 -1.000000 0.000000 26603.dat
1 19 30.000860 -236.000000 67.999940 -1.000000 0.000000 0.000000 0.000000 0.000000 -1.000000 0.000000 -1.000000 0.000000 26603.dat
1 19 -29.999150 -236.000000 67.999940 -1.000000 0.000000 0.000000 0.000000 0.000000 -1.000000 0.000000 -1.000000 0.000000 26603.dat
1 19 -29.999150 -196.000000 67.999940 -1.000000 0.000000 0.000000 0.000000 0.000000 -1.000000 0.000000 -1.000000 0.000000 26603.dat
1 19 0.000860 -264.000000 40.000220 1.000000 0.000000 0.000000 0.000000 1.000000 0.000000 0.000000 0.000000 1.000000 3795.dat
1 19 0.000860 -263.999800 -0.000070 1.000000 0.000000 0.000000 0.000000 1.000000 0.000000 0.000000 0.000000 1.000000 3795.dat
1 19 0.000840 -263.999800 -40.000070 1.000000 0.000000 0.000000 0.000000 1.000000 0.000000 0.000000 0.000000 1.000000 3795.dat
1 19 30.000840 -271.999800 -40.000060 1.000000 0.000000 0.000000 0.000000 1.000000 0.000000 0.000000 0.000000 1.000000 26603.dat
1 19 -29.999160 -271.999800 -40.000060 1.000000 0.000000 0.000000 0.000000 1.000000 0.000000 0.000000 0.000000 1.000000 26603.dat
1 19 -29.999140 -271.999800 -0.000070 1.000000 0.000000 0.000000 0.000000 1.000000 0.000000 0.000000 0.000000 1.000000 26603.dat
1 19 30.000860 -271.999800 -0.000070 1.000000 0.000000 0.000000 0.000000 1.000000 0.000000 0.000000 0.000000 1.000000 26603.dat
1 19 30.000860 -272.000000 40.000220 1.000000 0.000000 0.000000 0.000000 1.000000 0.000000 0.000000 0.000000 1.000000 26603.dat
1 19 -29.999140 -272.000000 40.000220 1.000000 0.000000 0.000000 0.000000 1.000000 0.000000 0.000000 0.000000 1.000000 26603.dat