1 19 30.000860 -155.999800 67.999940 -1.000000 0.000000 0.000000 0.000000 0.000000 -1.000000 0.000000 -1.000000 0.000000 26603.dat
1 72 0.000850 -196.000000 67.999940 -1.000000 0.000000 0.000000 0.000000 0.000000 -1.000000 0.000000 -1.000000 0.000000 3795.dat
1 0 -67.999140 -236.000000 0.000180 0.000000 1.000000 0.000000 0.000000 0.000000 -1.000000 -1.000000 0.000000 0.000000 3795.dat
1 72 -67.999140 -196.000000 30.000180 0.000000 1.000000 0.000000 0.000000 0.000000 1.000000 1.000000 0.000000 0.000000 3021.dat
1 19 -67.999140 -156.000000 29.999930 0.000000 1.000000 0.000000 0.000000 0.000000 -1.000000 -1.000000 0.000000 0.000000 26603.dat
1 19 -67.999140 -196.000000 -30.000070 0.000000 1.000000 0.000000 0.000000 0.000000 -1.000000 -1.000000 0.000000 0.000000 26603.dat
1 19 -29.999140 -156.000000 67.999940 -1.000000 0.000000 0.000000 0.000000 0.000000 -1.000000 0.000000 -1.000000 0.000000 26603.dat
1 19 68.000850 -156.000000 29.999930 0.000000 -1.000000 0.000000 0.000000 0.000000 -1.000000 1.000000 0.000000 0.000000 26603.dat
1 19 68.000850 -196.000000 -30.000070 0.000000 -1.000000 0.000000 0.000000 0.000000 -1.000000 1.000000 0.000000 0.000000 26603.dat
1 0 0.000850 -236.000000 67.999940 -1.000000 0.000000 0.000000 0.000000 0.000000 -1.000000 0.000000 -1.000000 0.000000 3795.dat
1 0 68.000850 -236.000000 -0.000070 0.000000 -1.000000 0.000000 0.000000 0.000000 -1.000000 1.000000 0.000000 0.000000 3795.dat
1 72 68.000850 -196.000000 29.999930 0.000000 -1.000000 0.000000 0.000000 0.000000 1.000000 -1.000000 0.000000 0.000000 3021.dat
1 0 0.000850 -264.000000 -0.000050 0.000000 0.000000 -1.000000 0.000000 1.000000 0.000000 1.000000 0.000000 0.000000 3958.dat
1 0 -75.999140 -226.000000 -9.999820 0.000000 1.000000 0.000000 0.000000 0.000000 -1.000000 -1.000000 0.000000 0.000000 25269.dat
1 0 76.000840 -226.000000 -10.000070 0.000000 -1.000000 0.000000 1.000000 0.000000 0.000000 0.000000 0.000000 1.000000 25269.dat
1 0 -75.999140 -226.000000 30.000180 0.000000 1.000000 0.000000 0.000000 0.000000 -1.000000 -1.000000 0.000000 0.000000 63864.dat
1 0 -75.999140 -246.000000 30.000180 0.000000 1.000000 0.000000 0.000000 0.000000 -1.000000 -1.000000 0.000000 0.000000 63864.dat
1 0 -75.999140 -246.000000 -29.999820 0.000000 1.000000 0.000000 0.000000 0.000000 -1.000000 -1.000000 0.000000 0.000000 63864.dat
1 0 76.000850 -226.000000 29.999930 0.000000 -1.000000 0.000000 0.000000 0.000000 1.000000 -1.000000 0.000000 -0.000001 63864.dat
1 0 76.000850 -246.000000 29.999930 0.000000 -1.000000 0.000000 0.000000 0.000000 1.000000 -1.000000 0.000000 -0.000001 63864.dat
1 0 76.000850 -246.000000 -30.000070 0.000000 -1.000000 0.000000 0.000000 0.000000 1.000000 -1.000000 0.000000 -0.000001 63864.dat
1 0 -39.999150 -236.000000 75.999940 1.000000 0.000000 0.000000 0.000000 0.000000 1.000000 0.000000 -1.000000 0.000000 3068a.dat
1 0 20.000850 -236.000000 75.999940 1.000000 0.000000 0.000000 0.000000 0.000000 1.000000 0.000000 -1.000000 0.000000 87079.dat
1 0 76.000850 -186.000000 19.999930 0.000000 -1.000000 0.000000 0.000000 0.000000 1.000000 -1.000000 0.000000 0.000000 2412a.dat
1 0 76.000840 -206.000000 19.999930 0.000000 -1.000000 0.000000 0.000000 0.000000 1.000000 -1.000000 0.000000 0.000000 2412a.dat
1 0 76.000850 -196.000000 49.999940 0.000000 -1.000000 0.000000 -1.000000 0.000000 0.000000 0.000000 0.000000 -1.000000 2412a.dat
1 0 40.000850 -186.000000 75.999940 -1.000000 0.000000 0.000000 0.000000 0.000000 -1.000000 0.000000 -1.000000 0.000000 2412a.dat
1 0 40.000850 -206.000000 75.999950 -1.000000 0.000000 0.000000 0.000000 0.000000 -1.000000 0.000000 -1.000000 0.000000 2412a.dat
1 0 0.000850 -206.000000 75.999950 -1.000000 0.000000 0.000000 0.000000 0.000000 -1.000000 0.000000 -1.000000 0.000000 2412a.dat
1 0 0.000850 -186.000000 75.999950 -1.000000 0.000000 0.000000 0.000000 0.000000 -1.000000 0.000000 -1.000000 0.000000 2412a.dat
1 0 -39.999150 -186.000000 75.999960 -1.000000 0.000000 0.000000 0.000000 0.000000 -1.000000 0.000000 -1.000000 0.000000 2412a.dat
1 0 -39.999160 -206.000000 75.999950 -1.000000 0.000000 0.000000 0.000000 0.000000 -1.000000 0.000000 -1.000000 0.000000 2412a.dat
1 0 -75.999140 -186.000000 20.000180 0.000000 1.000000 0.000000 0.000000 0.000000 -1.000000 -1.000000 0.000000 0.000000 2412b.dat
1 0 -75.999140 -206.000000 20.000180 0.000000 1.000000 0.000000 0.000000 0.000000 -1.000000 -1.000000 0.000000 0.000000 2412b.dat
1 0 -75.999140 -196.000000 50.000180 0.000000 1.000000 0.000000 1.000000 0.000000 0.000000 0.000000 0.000000 -1.000000 2412b.dat
1 0 -75.999140 -226.000000 -39.999820 0.000000 1.000000 0.000000 0.000000 0.000000 -1.000000 -1.000000 0.000000 0.000000 2412b.dat
1 0 76.000850 -226.000000 -40.000070 0.000000 -1.000000 0.000000 0.000000 0.000000 1.000000 -1.000000 0.000000 0.000000 2412b.dat
1 0 50.000870 -264.000000 39.999940 -1.000000 0.000000 0.000000 0.000000 1.000000 0.000000 0.000000 0.000000 -1.000000 11477.dat
1 0 30.000860 -264.000000 19.999940 -1.000000 0.000000 0.000000 0.000000 1.000000 0.000000 0.000000 0.000000 -1.000000 11477.dat
1 0 -9.999129 -264.000000 39.999960 -1.000000 0.000000 0.000000 0.000000 1.000000 0.000000 0.000000 0.000000 -1.000000 11477.dat
1 0 -29.999140 -264.000000 19.999970 -1.000000 0.000000 0.000000 0.000000 1.000000 0.000000 0.000000 0.000000 -1.000000 11477.dat
1 0 -49.999130 -264.000000 39.999980 -1.000000 0.000000 0.000000 0.000000 1.000000 0.000000 0.000000 0.000000 -1.000000 11477.dat
1 0 -9.999140 -264.000000 -0.000040 -1.000000 0.000000 0.000000 0.000000 1.000000 0.000000 0.000000 0.000000 -1.000000 11477.dat
1 0 10.000860 -264.000000 19.999950 -1.000000 0.000000 0.000000 0.000000 1.000000 0.000000 0.000000 0.000000 -1.000000 11477.dat
1 0 30.000850 -264.000000 -20.000060 -1.000000 0.000000 0.000000 0.000000 1.000000 0.000000 0.000000 0.000000 -1.000000 11477.dat
1 0 -49.999140 -264.000000 -20.000030 -1.000000 0.000000 0.000000 0.000000 1.000000 0.000000 0.000000 0.000000 -1.000000 11477.dat
1 0 -49.999140 -272.000000 -30.000030 1.000000 0.000000 0.000000 0.000000 1.000000 0.000000 0.000000 0.000000 1.000000 3024.dat
1 0 -49.999120 -272.000000 29.999980 1.000000 0.000000 0.000000 0.000000 1.000000 0.000000 0.000000 0.000000 1.000000 3024.dat
1 0 -29.999140 -272.000000 9.999969 1.000000 0.000000 0.000000 0.000000 1.000000 0.000000 0.000000 0.000000 1.000000 3024.dat
1 0 -9.999140 -272.000000 -10.000040 1.000000 0.000000 0.000000 0.000000 1.000000 0.000000 0.000000 0.000000 1.000000 3024.dat
1 0 -9.999120 -272.000000 29.999960 1.000000 0.000000 0.000000 0.000000 1.000000 0.000000 0.000000 0.000000 1.000000 3024.dat
1 0 30.000850 -272.000000 -30.000060 1.000000 0.000000 0.000000 0.000000 1.000000 0.000000 0.000000 0.000000 1.000000 3024.dat
1 0 10.000860 -272.000000 9.999949 1.000000 0.000000 0.000000 0.000000 1.000000 0.000000 0.000000 0.000000 1.000000 3024.dat
1 0 30.000860 -272.000000 9.999940 1.000000 0.000000 0.000000 0.000000 1.000000 0.000000 0.000000 0.000000 1.000000 3024.dat
1 0 50.000880 -272.000000 29.999940 1.000000 0.000000 0.000000 0.000000 1.000000 0.000000 0.000000 0.000000 1.000000 3024.dat
1 0 10.000850 -264.000000 -10.000050 1.000000 0.000000 0.000000 0.000000 1.000000 0.000000 0.000000 0.000000 1.000000 49307.dat
1 0 -29.999150 -264.000000 -10.000030 1.000000 0.000000 0.000000 0.000000 1.000000 0.000000 0.000000 0.000000 1.000000 49307.dat
1 0 -9.999160 -264.000000 -30.000040 1.000000 0.000000 0.000000 0.000000 1.000000 0.000000 0.000000 0.000000 1.000000 49307.dat
1 0 50.000850 -264.000000 9.999940 0.000000 0.000000 -1.000000 0.000000 1.000000 0.000000 1.000000 0.000000 0.000000 49307.dat
1 0 20.000870 -272.000000 49.999950 1.000000 0.000000 0.000000 0.000000 1.000000 0.000000 0.000000 0.000000 1.000000 3069b.dat
1 0 -29.999130 -272.000000 49.999960 1.000000 0.000000 0.000000 0.000000 1.000000 0.000000 0.000000 0.000000 1.000000 3070b.dat
1 0 10.000840 -264.000000 -40.000060 1.000000 0.000000 0.000000 0.000000 1.000000 0.000000 0.000000 0.000000 1.000000 11477.dat
1 0 10.000840 -272.000000 -30.000050 -1.000000 0.000000 0.000000 0.000000 1.000000 0.000000 0.000000 0.000000 -1.000000 3024.dat
1 0 50.000840 -264.000000 -40.000080 1.000000 0.000000 0.000000 0.000000 1.000000 0.000000 0.000000 0.000000 1.000000 11477.dat
1 0 50.000840 -272.000000 -30.000060 -1.000000 0.000000 0.000000 0.000000 1.000000 0.000000 0.000000 0.000000 -1.000000 3024.dat
1 0 -29.999170 -264.000000 -40.000040 1.000000 0.000000 0.000000 0.000000 1.000000 0.000000 0.000000 0.000000 1.000000 11477.dat
1 0 -29.999170 -272.000000 -30.000040 -1.000000 0.000000 0.000000 0.000000 1.000000 0.000000 0.000000 0.000000 -1.000000 3024.dat
1 0 -49.999140 -272.000000 9.999969 1.000000 0.000000 0.000000 0.000000 1.000000 0.000000 0.000000 0.000000 1.000000 98138.dat
1 0 -49.999160 -272.000000 -50.000030 1.000000 0.000000 0.000000 0.000000 1.000000 0.000000 0.000000 0.000000 1.000000 98138.dat
1 0 -9.999169 -272.000000 -50.000040 1.000000 0.000000 0.000000 0.000000 1.000000 0.000000 0.000000 0.000000 1.000000 24246.dat
1 0 30.000830 -272.000000 -50.000060 1.000000 0.000000 0.000000 0.000000 1.000000 0.000000 0.000000 0.000000 1.000000 24246.dat
1 0 50.000850 -272.000000 -10.000050 1.000000 0.000000 0.000000 0.000000 1.000000 0.000000 0.000000 0.000000 1.000000 98138.dat
