1 0 30.000860 -155.999800 67.999940 -1.000000 0.000000 0.000000 0.000000 0.000000 -1.000000 0.000000 -1.000000 0.000000 26603.dat
1 19 0.000850 -196.000000 67.999940 -1.000000 0.000000 0.000000 0.000000 0.000000 -1.000000 0.000000 -1.000000 0.000000 3795.dat
1 19 -67.999140 -236.000000 0.000180 0.000000 1.000000 0.000000 0.000000 0.000000 -1.000000 -1.000000 0.000000 0.000000 3795.dat
1 19 -67.999140 -196.000000 30.000180 0.000000 1.000000 0.000000 0.000000 0.000000 1.000000 1.000000 0.000000 0.000000 3021.dat
1 0 -67.999140 -156.000000 29.999930 0.000000 1.000000 0.000000 0.000000 0.000000 -1.000000 -1.000000 0.000000 0.000000 26603.dat
1 0 -29.999140 -156.000000 67.999940 -1.000000 0.000000 0.000000 0.000000 0.000000 -1.000000 0.000000 -1.000000 0.000000 26603.dat
1 0 68.000850 -156.000000 29.999930 0.000000 -1.000000 0.000000 0.000000 0.000000 -1.000000 1.000000 0.000000 0.000000 26603.dat
1 19 0.000850 -236.000000 67.999940 -1.000000 0.000000 0.000000 0.000000 0.000000 -1.000000 0.000000 -1.000000 0.000000 3795.dat
1 19 68.000850 -236.000000 -0.000070 0.000000 -1.000000 0.000000 0.000000 0.000000 -1.000000 1.000000 0.000000 0.000000 3795.dat
1 19 68.000850 -196.000000 29.999930 0.000000 -1.000000 0.000000 0.000000 0.000000 1.000000 -1.000000 0.000000 0.000000 3021.dat
1 0 50.000850 -186.000000 83.999940 0.000000 0.000000 -1.000000 1.000000 0.000000 0.000000 0.000000 -1.000000 0.000000 5841.dat
1 0 50.000860 -206.000000 83.999940 0.000000 0.000000 -1.000000 1.000000 0.000000 0.000000 0.000000 -1.000000 0.000000 5841.dat
1 0 50.000850 -196.000000 83.999950 -1.000000 0.000000 0.000000 0.000000 0.000000 -1.000000 0.000000 -1.000000 0.000000 7302.dat
1 0 20.000850 -186.000000 75.999950 0.000000 0.000000 -1.000000 1.000000 0.000000 0.000000 0.000000 -1.000000 0.000000 3021.dat
1 0 -19.999150 -186.000000 75.999950 0.000000 0.000000 -1.000000 1.000000 0.000000 0.000000 0.000000 -1.000000 0.000000 3021.dat
1 0 30.000860 -176.000000 83.999950 -1.000000 0.000000 0.000000 0.000000 0.000000 -1.000000 0.000000 -1.000000 0.000000 7302.dat
1 0 -29.999150 -176.000000 83.999950 -1.000000 0.000000 0.000000 0.000000 0.000000 -1.000000 0.000000 -1.000000 0.000000 7302.dat
1 0 10.000860 -176.000000 83.999950 -1.000000 0.000000 0.000000 0.000000 0.000000 -1.000000 0.000000 -1.000000 0.000000 7302.dat
1 0 -9.999149 -176.000000 83.999950 -1.000000 0.000000 0.000000 0.000000 0.000000 -1.000000 0.000000 -1.000000 0.000000 7302.dat
1 0 -49.999160 -206.000000 83.999930 0.000000 0.000000 1.000000 -1.000000 0.000000 0.000000 0.000000 -1.000000 0.000000 5841.dat
1 0 -49.999160 -186.000000 83.999930 0.000000 0.000000 1.000000 -1.000000 0.000000 0.000000 0.000000 -1.000000 0.000000 5841.dat
1 0 -49.999160 -196.000000 83.999930 -1.000000 0.000000 0.000000 0.000000 0.000000 -1.000000 0.000000 -1.000000 0.000000 7302.dat
1 19 -67.999130 -196.000000 -29.999820 0.000000 1.000000 0.000000 0.000000 0.000000 1.000000 1.000000 0.000000 0.000000 3021.dat
1 19 68.000840 -196.000000 -30.000070 0.000000 -1.000000 0.000000 0.000000 0.000000 1.000000 -1.000000 0.000000 0.000000 3021.dat
1 0 84.000830 -196.000000 9.999929 0.000000 -1.000000 0.000000 0.000000 0.000000 -1.000000 1.000000 0.000000 0.000000 7302.dat
1 0 84.000840 -196.000000 29.999930 0.000000 -1.000000 0.000000 0.000000 0.000000 -1.000000 1.000000 0.000000 0.000000 7302.dat
1 0 84.000840 -196.000000 49.999940 0.000000 -1.000000 0.000000 0.000000 0.000000 -1.000000 1.000000 0.000000 0.000000 7302.dat
1 0 76.000840 -196.000000 19.999930 0.000000 -1.000000 0.000000 0.000000 0.000000 1.000000 -1.000000 0.000000 0.000000 3020.dat
1 0 84.000840 -196.000000 -10.000080 0.000000 -1.000000 0.000000 0.000000 0.000000 -1.000000 1.000000 0.000000 0.000000 7302.dat
1 0 84.000850 -216.000000 -30.000070 0.000000 -1.000000 0.000000 0.000000 0.000000 -1.000000 1.000000 0.000000 0.000000 7302.dat
1 0 84.000840 -216.000000 -50.000080 0.000000 -1.000000 0.000000 0.000000 0.000000 -1.000000 1.000000 0.000000 0.000000 7302.dat
1 0 76.000840 -236.000000 19.999930 0.000000 -1.000000 0.000000 0.000000 0.000000 1.000000 -1.000000 0.000000 0.000000 3020.dat
1 0 50.000860 -280.000000 -50.000060 1.000000 0.000000 0.000000 0.000000 1.000000 0.000000 0.000000 0.000000 1.000000 5841.dat
1 0 30.000860 -280.000000 -50.000060 1.000000 0.000000 0.000000 0.000000 1.000000 0.000000 0.000000 0.000000 1.000000 5841.dat
1 0 10.000850 -280.000000 -50.000060 1.000000 0.000000 0.000000 0.000000 1.000000 0.000000 0.000000 0.000000 1.000000 5841.dat
1 0 -9.999149 -280.000000 -50.000060 1.000000 0.000000 0.000000 0.000000 1.000000 0.000000 0.000000 0.000000 1.000000 5841.dat
1 0 -29.999150 -280.000000 -50.000060 1.000000 0.000000 0.000000 0.000000 1.000000 0.000000 0.000000 0.000000 1.000000 5841.dat
1 0 -49.999140 -280.000000 -50.000060 1.000000 0.000000 0.000000 0.000000 1.000000 0.000000 0.000000 0.000000 1.000000 5841.dat
1 0 76.000840 -206.000000 -40.000080 0.000000 -1.000000 0.000000 0.000000 0.000000 -1.000000 1.000000 0.000000 0.000000 3023b.dat
1 0 76.000850 -236.000000 -30.000070 0.000000 -1.000000 0.000000 1.000000 0.000000 0.000000 0.000000 0.000000 1.000000 3023b.dat
1 0 70.000820 -280.000000 -50.000040 1.000000 0.000000 0.000000 0.000000 1.000000 0.000000 0.000000 0.000000 1.000000 5841.dat
1 0 -69.999180 -280.000000 -50.000040 1.000000 0.000000 0.000000 0.000000 1.000000 0.000000 0.000000 0.000000 1.000000 5841.dat
1 0 50.000860 -226.000000 83.999940 0.000000 0.000000 -1.000000 1.000000 0.000000 0.000000 0.000000 -1.000000 0.000000 5841.dat
1 0 50.000860 -246.000000 83.999940 0.000000 0.000000 -1.000000 1.000000 0.000000 0.000000 0.000000 -1.000000 0.000000 5841.dat
1 0 -49.999150 -226.000000 83.999940 0.000000 0.000000 1.000000 -1.000000 0.000000 0.000000 0.000000 -1.000000 0.000000 5841.dat
1 0 -49.999150 -246.000000 83.999940 0.000000 0.000000 1.000000 -1.000000 0.000000 0.000000 0.000000 -1.000000 0.000000 5841.dat
1 0 84.000840 -226.000000 -10.000070 0.000000 -1.000000 0.000000 1.000000 0.000000 0.000000 0.000000 0.000000 1.000000 63864.dat
1 0 84.000830 -226.000000 9.999929 0.000000 -1.000000 0.000000 1.000000 0.000000 0.000000 0.000000 0.000000 1.000000 63864.dat
1 0 84.000830 -226.000000 29.999930 0.000000 -1.000000 0.000000 1.000000 0.000000 0.000000 0.000000 0.000000 1.000000 63864.dat
1 0 84.000830 -226.000000 49.999940 0.000000 -1.000000 0.000000 1.000000 0.000000 0.000000 0.000000 0.000000 1.000000 63864.dat
1 0 84.000850 -236.000000 -30.000070 0.000000 -1.000000 0.000000 1.000000 0.000000 0.000000 0.000000 0.000000 1.000000 3069b.dat
1 0 0.000850 -236.000000 75.999950 1.000000 0.000000 0.000000 0.000000 0.000000 1.000000 0.000000 -1.000000 0.000000 3020.dat
1 0 10.000860 -256.000000 91.999980 -1.000000 0.000000 0.000000 0.000000 0.000000 -1.000000 0.000000 -1.000000 0.000000 7302.dat
1 0 50.000860 -256.000000 91.999950 -1.000000 0.000000 0.000000 0.000000 0.000000 -1.000000 0.000000 -1.000000 0.000000 7302.dat
1 0 -49.999140 -256.000000 91.999950 -1.000000 0.000000 0.000000 0.000000 0.000000 -1.000000 0.000000 -1.000000 0.000000 7302.dat
1 0 30.000860 -236.000000 91.999970 -1.000000 0.000000 0.000000 0.000000 0.000000 -1.000000 0.000000 -1.000000 0.000000 7302.dat
1 0 -9.999140 -236.000000 91.999970 -1.000000 0.000000 0.000000 0.000000 0.000000 -1.000000 0.000000 -1.000000 0.000000 7302.dat
1 0 -29.999140 -256.000000 91.999950 -1.000000 0.000000 0.000000 0.000000 0.000000 -1.000000 0.000000 -1.000000 0.000000 7302.dat
1 0 30.000860 -236.000000 83.999950 0.000000 0.000000 -1.000000 1.000000 0.000000 0.000000 0.000000 -1.000000 0.000000 3023b.dat
1 0 -9.999149 -236.000000 83.999950 0.000000 0.000000 -1.000000 1.000000 0.000000 0.000000 0.000000 -1.000000 0.000000 3023b.dat
1 0 50.000860 -246.000100 83.999950 1.000000 0.000000 0.000000 0.000000 0.000000 1.000000 0.000000 -1.000000 0.000000 3024.dat
1 0 10.000850 -246.000000 83.999950 1.000000 0.000000 0.000000 0.000000 0.000000 1.000000 0.000000 -1.000000 0.000000 3024.dat
1 0 -29.999150 -246.000100 83.999950 1.000000 0.000000 0.000000 0.000000 0.000000 1.000000 0.000000 -1.000000 0.000000 3024.dat
1 0 -49.999140 -246.000000 83.999950 1.000000 0.000000 0.000000 0.000000 0.000000 1.000000 0.000000 -1.000000 0.000000 3024.dat
1 0 -29.999150 -186.000000 83.999950 1.000000 0.000000 0.000000 0.000000 0.000000 1.000000 0.000000 -1.000000 0.000000 3070b.dat
1 0 10.000850 -186.000000 83.999950 1.000000 0.000000 0.000000 0.000000 0.000000 1.000000 0.000000 -1.000000 0.000000 3070b.dat
1 0 30.000850 -246.000000 91.999950 1.000000 0.000000 0.000000 0.000000 0.000000 1.000000 0.000000 -1.000000 0.000000 3070b.dat
1 0 -9.999149 -246.000000 91.999950 1.000000 0.000000 0.000000 0.000000 0.000000 1.000000 0.000000 -1.000000 0.000000 3070b.dat
1 0 0.000850 -280.000000 -50.000050 1.000000 0.000000 0.000000 0.000000 1.000000 0.000000 0.000000 0.000000 1.000000 3666.dat
1 0 30.000860 -280.000000 -30.000050 1.000000 0.000000 0.000000 0.000000 1.000000 0.000000 0.000000 0.000000 1.000000 3623.dat
1 0 0.000830 -264.000000 59.999960 1.000000 0.000000 0.000000 0.000000 1.000000 0.000000 0.000000 0.000000 1.000000 3020.dat
1 0 -29.999150 -280.000000 -30.000050 1.000000 0.000000 0.000000 0.000000 1.000000 0.000000 0.000000 0.000000 1.000000 3623.dat
1 0 0.000840 -264.000000 -40.000060 1.000000 0.000000 0.000000 0.000000 1.000000 0.000000 0.000000 0.000000 1.000000 3020.dat
1 0 0.000830 -264.000000 -0.000050 1.000000 0.000000 0.000000 0.000000 1.000000 0.000000 0.000000 0.000000 1.000000 3020.dat
1 0 0.000830 -264.000000 29.999950 1.000000 0.000000 0.000000 0.000000 1.000000 0.000000 0.000000 0.000000 1.000000 3710.dat
1 0 30.000830 -264.000000 69.999960 -1.000000 0.000000 0.000000 0.000000 1.000000 0.000000 0.000000 0.000000 -1.000000 54200.dat
1 0 10.000830 -264.000000 69.999960 -1.000000 0.000000 0.000000 0.000000 1.000000 0.000000 0.000000 0.000000 -1.000000 54200.dat
1 0 -9.999169 -264.000000 69.999960 -1.000000 0.000000 0.000000 0.000000 1.000000 0.000000 0.000000 0.000000 -1.000000 54200.dat
1 0 -29.999170 -264.000000 69.999960 -1.000000 0.000000 0.000000 0.000000 1.000000 0.000000 0.000000 0.000000 -1.000000 54200.dat
1 0 0.000830 -272.000000 39.999950 1.000000 0.000000 0.000000 0.000000 1.000000 0.000000 0.000000 0.000000 1.000000 3795.dat
1 0 0.000830 -280.000000 39.999950 1.000000 0.000000 0.000000 0.000000 1.000000 0.000000 0.000000 0.000000 1.000000 3795.dat
1 0 -83.999240 -215.999900 -49.999700 0.000000 1.000000 0.000000 0.000000 0.000000 -1.000000 -1.000000 0.000000 0.000000 7302.dat
1 0 -83.999110 -216.000000 -29.999820 0.000000 1.000000 0.000000 0.000000 0.000000 -1.000000 -1.000000 0.000000 0.000000 7302.dat
1 0 -75.999110 -206.000000 -39.999820 0.000000 1.000000 0.000000 0.000000 0.000000 -1.000000 -1.000000 0.000000 0.000000 3023b.dat
1 0 -75.999140 -196.000000 20.000180 0.000000 1.000000 0.000000 0.000000 0.000000 1.000000 1.000000 0.000000 0.000000 3020.dat
1 0 -75.999220 -235.999800 20.000200 0.000000 1.000000 0.000000 0.000000 0.000000 1.000000 1.000000 0.000000 0.000000 3020.dat
1 0 -75.999140 -236.000000 -29.999820 0.000000 1.000000 0.000000 1.000000 0.000000 0.000000 0.000000 0.000000 -1.000000 3023b.dat
1 0 -83.999080 -195.999800 30.000180 0.000000 1.000000 0.000000 0.000000 0.000000 -1.000000 -1.000000 0.000000 0.000000 7302.dat
1 0 -83.999130 -196.000000 50.000180 0.000000 1.000001 0.000000 0.000000 0.000000 -1.000001 -1.000000 0.000000 0.000000 7302.dat
1 0 -83.999110 -226.000000 50.000180 0.000000 1.000001 0.000000 1.000001 0.000000 0.000000 0.000000 0.000000 -1.000000 63864.dat
1 0 -83.999130 -226.000000 30.000160 0.000000 1.000000 0.000000 1.000001 0.000000 0.000000 0.000000 0.000000 -1.000000 63864.dat
1 0 -83.999110 -226.000000 10.000170 0.000000 1.000000 0.000000 1.000001 0.000000 0.000000 0.000000 0.000000 -1.000000 63864.dat
1 0 -83.999110 -226.000000 -9.999840 0.000000 1.000000 0.000000 1.000001 0.000000 0.000000 0.000000 0.000000 -1.000000 63864.dat
1 0 -83.999160 -196.000000 -9.999820 0.000000 1.000000 0.000000 0.000000 0.000000 -1.000000 -1.000000 0.000000 0.000000 7302.dat
1 0 -83.999170 -196.000000 10.000200 0.000000 1.000000 0.000000 0.000000 0.000000 -1.000000 -1.000000 0.000000 0.000000 7302.dat
1 0 -83.999160 -236.000000 -29.999820 0.000000 1.000000 0.000000 1.000000 0.000000 0.000000 0.000000 0.000000 -1.000000 3069b.dat
1 0 -39.999160 -280.000000 -50.000060 0.000000 0.000000 1.000000 0.000000 1.000000 0.000000 -1.000000 0.000000 0.000000 11477.dat
1 0 40.000860 -280.000000 -50.000040 0.000001 0.000000 -1.000000 0.000000 1.000000 0.000000 1.000000 0.000000 0.000001 11477.dat
1 0 -9.999149 -280.000000 -50.000060 0.000000 0.000000 -1.000000 0.000000 1.000000 0.000000 1.000000 0.000000 0.000000 54200.dat
1 0 10.000850 -280.000000 -50.000060 0.000000 0.000000 1.000000 0.000000 1.000000 0.000000 -1.000000 0.000000 0.000000 54200.dat
1 0 30.000860 -288.000000 -50.000040 1.000000 0.000000 0.000000 0.000000 1.000000 0.000000 0.000000 0.000000 1.000000 3024.dat
1 0 -29.999160 -288.000000 -50.000060 1.000000 0.000000 0.000000 0.000000 1.000000 0.000000 0.000000 0.000000 1.000000 3024.dat
1 0 0.000830 -272.000000 -0.000050 1.000000 0.000000 0.000000 0.000000 1.000000 0.000000 0.000000 0.000000 1.000000 3795.dat
1 0 0.000830 -280.000000 -0.000050 1.000000 0.000000 0.000000 0.000000 1.000000 0.000000 0.000000 0.000000 1.000000 3795.dat
1 0 -39.999220 -280.000000 -30.000040 0.000000 0.000000 1.000000 0.000000 1.000000 0.000000 -1.000000 0.000000 0.000000 11477.dat
1 0 40.000860 -280.000000 -30.000050 0.000001 0.000000 -1.000001 0.000000 1.000000 0.000000 1.000001 0.000000 0.000001 11477.dat
1 0 -9.999209 -280.000000 -30.000060 0.000000 0.000000 -1.000001 0.000000 1.000000 0.000000 1.000001 0.000000 0.000000 54200.dat
1 0 10.000820 -280.000000 -30.000060 0.000000 0.000000 1.000001 0.000000 1.000000 0.000000 -1.000001 0.000000 0.000000 54200.dat
1 0 30.000860 -288.000000 -30.000040 1.000001 0.000000 0.000000 0.000000 1.000000 0.000000 0.000000 0.000000 1.000001 3024.dat
1 0 -29.999240 -288.000000 -30.000060 1.000001 0.000000 0.000000 0.000000 1.000000 0.000000 0.000000 0.000000 1.000001 3024.dat
1 0 -39.999090 -280.000000 -10.000040 0.000000 0.000000 0.999999 0.000000 1.000000 0.000000 -0.999999 0.000000 0.000000 11477.dat
1 0 40.000950 -280.000000 -10.000040 0.000001 0.000000 -1.000001 0.000000 1.000000 0.000000 1.000001 0.000000 0.000001 11477.dat
1 0 -9.999090 -280.000000 -10.000050 0.000000 0.000000 -1.000001 0.000000 1.000000 0.000000 1.000001 0.000000 0.000000 54200.dat
1 0 10.000920 -280.000000 -10.000050 0.000000 0.000000 1.000001 0.000000 1.000000 0.000000 -1.000001 0.000000 0.000000 54200.dat
1 0 30.000960 -288.000000 -10.000040 1.000001 0.000000 0.000000 0.000000 1.000000 0.000000 0.000000 0.000000 1.000001 3024.dat
1 0 -29.999110 -288.000000 -10.000060 1.000001 0.000000 0.000000 0.000000 1.000000 0.000000 0.000000 0.000000 1.000001 3024.dat
1 0 -39.999050 -280.000000 9.999960 0.000000 0.000000 0.999999 0.000000 1.000000 0.000000 -0.999999 0.000000 0.000000 11477.dat
1 0 40.000950 -280.000000 9.999960 0.000001 0.000000 -1.000000 0.000000 1.000000 0.000000 1.000000 0.000000 0.000001 11477.dat
1 0 -9.999060 -280.000000 9.999949 0.000000 0.000000 -1.000000 0.000000 1.000000 0.000000 1.000000 0.000000 0.000000 54200.dat
1 0 10.000950 -280.000000 9.999949 0.000000 0.000000 1.000000 0.000000 1.000000 0.000000 -1.000000 0.000000 0.000000 54200.dat
1 0 30.000950 -288.000000 9.999960 1.000000 0.000000 0.000000 0.000000 1.000000 0.000000 0.000000 0.000000 1.000000 3024.dat
1 0 -29.999070 -288.000000 9.999940 1.000000 0.000000 0.000000 0.000000 1.000000 0.000000 0.000000 0.000000 1.000000 3024.dat
1 0 -39.999160 -280.000000 29.999940 0.000000 0.000000 0.999999 0.000000 1.000000 0.000000 -0.999999 0.000000 0.000000 11477.dat
1 0 40.000910 -280.000000 29.999940 0.000001 0.000000 -1.000001 0.000000 1.000000 0.000000 1.000001 0.000000 0.000001 11477.dat
1 0 -9.999149 -280.000000 29.999940 0.000000 0.000000 -1.000001 0.000000 1.000000 0.000000 1.000001 0.000000 0.000000 54200.dat
1 0 10.000890 -280.000000 29.999940 0.000000 0.000000 1.000001 0.000000 1.000000 0.000000 -1.000001 0.000000 0.000000 54200.dat
1 0 30.000920 -288.000000 29.999950 1.000001 0.000000 0.000000 0.000000 1.000000 0.000000 0.000000 0.000000 1.000001 3024.dat
1 0 -29.999180 -288.000000 29.999930 1.000001 0.000000 0.000000 0.000000 1.000000 0.000000 0.000000 0.000000 1.000001 3024.dat
1 0 -39.999150 -280.000000 49.999910 0.000000 0.000000 0.999999 0.000000 1.000000 0.000000 -0.999999 0.000000 0.000000 11477.dat
1 0 40.000950 -280.000000 49.999960 0.000001 0.000000 -1.000001 0.000000 1.000000 0.000000 1.000001 0.000000 0.000001 11477.dat
1 0 -9.999120 -280.000000 49.999950 0.000000 0.000000 -1.000001 0.000000 1.000000 0.000000 1.000001 0.000000 0.000000 54200.dat
1 0 10.000910 -280.000000 49.999950 0.000000 0.000000 1.000001 0.000000 1.000000 0.000000 -1.000001 0.000000 0.000000 54200.dat
1 0 30.000960 -288.000000 49.999960 1.000001 0.000000 0.000000 0.000000 1.000000 0.000000 0.000000 0.000000 1.000001 3024.dat
1 0 -29.999180 -288.000000 49.999940 1.000001 0.000000 0.000000 0.000000 1.000000 0.000000 0.000000 0.000000 1.000001 3024.dat
1 0 30.000860 -272.000000 -30.000050 1.000000 0.000000 0.000000 0.000000 1.000000 0.000000 0.000000 0.000000 1.000000 3623.dat
1 0 70.000840 -264.000000 -10.000030 0.000000 0.000000 -1.000000 0.000000 1.000000 0.000000 1.000000 0.000000 0.000000 54200.dat
1 0 70.000840 -264.000000 9.999969 0.000000 0.000000 -1.000000 0.000000 1.000000 0.000000 1.000000 0.000000 0.000000 54200.dat
1 0 70.000840 -264.000000 29.999970 0.000000 0.000000 -1.000000 0.000000 1.000000 0.000000 1.000000 0.000000 0.000000 54200.dat
1 0 -29.999180 -272.000000 -30.000050 1.000000 0.000000 0.000000 0.000000 1.000000 0.000000 0.000000 0.000000 1.000000 3623.dat
1 0 -69.999160 -264.000000 29.999900 0.000000 0.000000 1.000003 0.000000 1.000000 0.000000 -1.000003 0.000000 0.000000 54200.dat
1 0 -69.999160 -264.000000 9.999840 0.000000 0.000000 1.000003 0.000000 1.000000 0.000000 -1.000003 0.000000 0.000000 54200.dat
1 0 -69.999160 -264.000000 -10.000240 0.000000 0.000000 1.000003 0.000000 1.000000 0.000000 -1.000003 0.000000 0.000000 54200.dat
1 0 70.000820 -280.000000 -50.000040 1.000000 0.000000 0.000000 0.000000 1.000000 0.000000 0.000000 0.000000 1.000000 3070b.dat
1 0 -69.999180 -280.000000 -50.000040 1.000000 0.000000 0.000000 0.000000 1.000000 0.000000 0.000000 0.000000 1.000000 3070b.dat
1 0 -49.999180 -264.000000 69.999940 -1.000000 0.000000 0.000000 0.000000 1.000000 0.000000 0.000000 0.000000 -1.000000 54200.dat
1 0 50.000860 -264.000000 69.999980 -1.000000 0.000000 0.000000 0.000000 1.000000 0.000000 0.000000 0.000000 -1.000000 54200.dat
1 0 -69.999180 -264.000000 49.999950 0.000000 0.000000 1.000000 0.000000 1.000000 0.000000 -1.000000 0.000000 0.000000 54200.dat
1 0 60.000850 -264.000000 59.999940 0.000000 0.000000 -1.000000 0.000000 1.000000 0.000000 1.000000 0.000000 0.000000 26601.dat
1 0 -59.999140 -264.000000 59.999950 -1.000000 0.000000 -0.000001 0.000000 1.000000 0.000000 0.000001 0.000000 -1.000000 26601.dat
1 0 60.000840 -264.000000 -30.000040 0.000000 0.000000 -1.000000 0.000000 1.000000 0.000000 1.000000 0.000000 0.000000 3021.dat
1 0 60.000840 -264.000000 19.999970 1.000000 0.000000 0.000000 0.000000 1.000000 0.000000 0.000000 0.000000 1.000000 3022.dat
1 0 -59.999160 -264.000000 -30.000120 0.000000 0.000000 -1.000000 0.000000 1.000000 0.000000 1.000000 0.000000 0.000000 3021.dat
1 0 -59.999160 -264.000000 19.999900 1.000000 0.000000 0.000000 0.000000 1.000000 0.000000 0.000000 0.000000 1.000000 3022.dat
1 0 -75.999140 -236.000000 -59.999820 0.000000 1.000000 0.000000 0.000000 0.000000 -1.000000 -1.000000 0.000000 0.000000 26601.dat
1 0 76.000850 -236.000000 -60.000080 0.000001 -1.000000 0.000001 1.000000 0.000001 0.000000 0.000000 0.000001 1.000000 26601.dat
1 0 -83.999140 -236.000000 -49.999860 0.000000 1.000000 0.000000 -1.000000 0.000000 0.000000 0.000000 0.000000 1.000000 3069b.dat
1 0 84.000850 -236.000000 -50.000080 0.000000 -1.000000 0.000000 -1.000000 0.000000 0.000000 0.000000 0.000000 -1.000000 3069b.dat
1 0 70.000840 -264.000000 -30.000040 0.000000 0.000000 -1.000000 0.000000 1.000000 0.000000 1.000000 0.000000 0.000000 54200.dat
1 0 -69.999160 -264.000000 -30.000120 0.000000 0.000000 1.000000 0.000000 1.000000 0.000000 -1.000000 0.000000 0.000000 54200.dat
1 0 70.000850 -264.000000 49.999980 0.000001 0.000000 -1.000000 0.000000 1.000000 0.000000 1.000000 0.000000 0.000001 54200.dat
