1 6 0.000850 -196.000000 67.999940 -1.000000 0.000000 0.000000 0.000000 0.000000 -1.000000 0.000000 -1.000000 0.000000 3795.dat
1 6 -67.999140 -236.000000 0.000180 0.000000 1.000000 0.000000 0.000000 0.000000 -1.000000 -1.000000 0.000000 0.000000 3795.dat
1 6 -67.999140 -196.000000 30.000180 0.000000 1.000000 0.000000 0.000000 0.000000 1.000000 1.000000 0.000000 0.000000 3021.dat
1 6 0.000850 -236.000000 67.999940 -1.000000 0.000000 0.000000 0.000000 0.000000 -1.000000 0.000000 -1.000000 0.000000 3795.dat
1 6 68.000850 -236.000000 -0.000070 0.000000 -1.000000 0.000000 0.000000 0.000000 -1.000000 1.000000 0.000000 0.000000 3795.dat
1 6 68.000850 -196.000000 29.999930 0.000000 -1.000000 0.000000 0.000000 0.000000 1.000000 -1.000000 0.000000 0.000000 3021.dat
1 6 0.000850 -264.000000 -0.000050 0.000000 0.000000 -1.000000 0.000000 1.000000 0.000000 1.000000 0.000000 0.000000 3958.dat
1 6 -67.999110 -156.000000 30.000000 0.000000 1.000000 0.000000 0.000000 0.000000 -1.000000 -1.000000 0.000000 0.000000 3021.dat
1 19 -67.999000 -196.000000 -30.000000 0.000000 1.000000 0.000000 0.000000 0.000000 -1.000000 -1.000000 0.000000 0.000000 3021.dat
1 6 -29.999140 -155.999800 67.999920 -1.000000 0.000000 0.000000 0.000000 0.000000 -1.000000 0.000000 -1.000000 0.000000 3021.dat
1 6 30.000860 -155.999800 67.999950 -1.000000 0.000000 0.000000 0.000000 0.000000 -1.000000 0.000000 -1.000000 0.000000 3021.dat
1 6 68.000850 -156.000000 29.999890 0.000000 -1.000000 0.000000 0.000000 0.000000 -1.000000 1.000000 0.000000 0.000000 3021.dat
1 19 68.000880 -196.000000 -30.000090 0.000000 -1.000000 0.000000 0.000000 0.000000 -1.000000 1.000000 0.000000 0.000000 3021.dat
1 6 -29.999160 -288.000000 49.999940 0.000000 0.000000 1.000000 0.000000 1.000000 0.000000 -1.000000 0.000000 0.000000 50950.dat
1 6 -29.999160 -288.000000 29.999960 0.000000 0.000000 1.000000 0.000000 1.000000 0.000000 -1.000000 0.000000 0.000000 50950.dat
1 6 -29.999160 -288.000000 9.999960 0.000000 0.000000 1.000000 0.000000 1.000000 0.000000 -1.000000 0.000000 0.000000 50950.dat
1 6 -29.999160 -288.000000 -10.000050 0.000000 0.000000 1.000000 0.000000 1.000000 0.000000 -1.000000 0.000000 0.000000 50950.dat
1 6 -29.999160 -288.000000 -30.000050 0.000000 0.000000 1.000000 0.000000 1.000000 0.000000 -1.000000 0.000000 0.000000 50950.dat
1 6 -29.999160 -288.000000 -50.000040 0.000000 0.000000 1.000000 0.000000 1.000000 0.000000 -1.000000 0.000000 0.000000 50950.dat
1 6 30.000850 -288.000000 -50.000060 0.000000 0.000000 -1.000000 0.000000 1.000000 0.000000 1.000000 0.000000 0.000000 50950.dat
1 6 0.000840 -272.000000 -0.000060 0.000000 0.000000 1.000000 0.000000 1.000000 0.000000 -1.000000 0.000000 0.000000 3795.dat
1 6 30.000860 -288.000000 -30.000040 0.000000 0.000000 -1.000000 0.000000 1.000000 0.000000 1.000000 0.000000 0.000000 50950.dat
1 6 30.000860 -288.000000 -10.000040 0.000000 0.000000 -1.000000 0.000000 1.000000 0.000000 1.000000 0.000000 0.000000 50950.dat
1 6 30.000860 -288.000000 9.999949 0.000000 0.000000 -1.000000 0.000000 1.000000 0.000000 1.000000 0.000000 0.000000 50950.dat
1 6 30.000860 -288.000000 29.999960 0.000000 0.000000 -1.000000 0.000000 1.000000 0.000000 1.000000 0.000000 0.000000 50950.dat
1 6 30.000840 -288.000000 49.999980 0.000000 0.000000 -1.000000 0.000000 1.000000 0.000000 1.000000 0.000000 0.000000 50950.dat
1 6 -91.999140 -226.000000 -9.999820 0.000000 1.000000 0.000000 0.000000 0.000000 1.000000 1.000000 0.000000 0.000000 50950.dat
1 6 -67.999140 -236.000000 -39.999820 0.000000 1.000000 0.000000 0.000000 0.000000 1.000000 1.000000 0.000000 0.000000 15068.dat
1 6 -67.999140 -236.000000 20.000180 0.000000 1.000000 0.000000 0.000000 0.000000 1.000000 1.000000 0.000000 0.000000 15068.dat
1 6 -67.999140 -236.000000 50.000180 0.000000 1.000000 0.000000 0.000000 0.000000 1.000000 1.000000 0.000000 0.000000 11477.dat
1 6 -67.999140 -196.000000 20.000180 0.000000 1.000000 0.000000 0.000000 0.000000 1.000000 1.000000 0.000000 0.000000 15068.dat
1 6 -67.999140 -196.000000 50.000180 0.000000 1.000000 0.000000 0.000000 0.000000 1.000000 1.000000 0.000000 0.000000 11477.dat
1 6 -67.999110 -156.000000 50.000000 0.000000 1.000000 0.000000 0.000000 0.000000 1.000000 1.000000 0.000000 0.000000 11477.dat
1 6 -67.999110 -156.000000 20.000000 0.000000 1.000000 0.000000 0.000000 0.000000 1.000000 1.000000 0.000000 0.000000 15068.dat
1 6 -91.999000 -166.000000 -10.000000 0.000000 1.000000 0.000000 0.000000 0.000000 1.000000 1.000000 0.000000 0.000000 50950.dat
1 6 -91.999000 -186.000000 -30.000000 0.000000 1.000000 0.000000 0.000000 0.000000 1.000000 1.000000 0.000000 0.000000 50950.dat
1 6 -91.999000 -186.000000 -50.000000 0.000000 1.000000 0.000000 0.000000 0.000000 1.000000 1.000000 0.000000 0.000000 50950.dat
1 6 92.000850 -226.000000 -10.000070 0.000000 -1.000000 0.000000 0.000001 0.000000 1.000000 -1.000000 0.000000 0.000001 50950.dat
1 6 68.000850 -236.000000 -40.000060 0.000000 -1.000000 0.000000 0.000000 0.000000 1.000000 -1.000000 0.000000 0.000000 15068.dat
1 6 68.000850 -236.000000 19.999940 0.000000 -1.000000 0.000000 0.000000 0.000000 1.000000 -1.000000 0.000000 0.000000 15068.dat
1 6 68.000850 -236.000000 49.999960 0.000000 -1.000000 0.000000 0.000000 0.000000 1.000000 -1.000000 0.000000 0.000000 11477.dat
1 6 92.000880 -186.000000 -30.000080 0.000000 -1.000000 0.000000 0.000001 0.000000 1.000000 -1.000000 0.000000 0.000001 50950.dat
1 6 92.000870 -186.000000 -50.000080 0.000000 -1.000000 0.000000 0.000001 0.000000 1.000000 -1.000000 0.000000 0.000001 50950.dat
1 6 92.000880 -166.000000 -10.000090 0.000000 -1.000000 0.000000 0.000001 0.000000 1.000000 -1.000000 0.000000 0.000001 50950.dat
1 6 68.000850 -196.000000 19.999940 0.000000 -1.000000 0.000000 0.000000 0.000000 1.000000 -1.000000 0.000000 0.000000 15068.dat
1 6 68.000850 -156.000000 19.999890 0.000000 -1.000000 0.000000 0.000000 0.000000 1.000000 -1.000000 0.000000 0.000000 15068.dat
1 6 68.000850 -196.000000 49.999940 0.000000 -1.000000 0.000000 0.000000 0.000000 1.000000 -1.000000 0.000000 0.000000 11477.dat
1 6 68.000850 -156.000000 49.999890 0.000000 -1.000000 0.000000 0.000000 0.000000 1.000000 -1.000000 0.000000 0.000000 11477.dat
1 6 40.000850 -236.000000 67.999950 1.000000 0.000000 0.000000 0.000000 0.000001 1.000000 0.000000 -1.000000 0.000001 15068.dat
1 6 10.000860 -226.000000 91.999950 1.000000 0.000000 0.000000 0.000000 0.000001 1.000000 0.000000 -1.000000 0.000001 50950.dat
1 6 -19.999150 -236.000000 67.999940 1.000000 0.000000 0.000000 0.000000 0.000001 1.000000 0.000000 -1.000000 0.000001 15068.dat
1 6 -49.999140 -226.000000 91.999950 1.000000 0.000000 0.000000 0.000000 0.000001 1.000000 0.000000 -1.000000 0.000001 50950.dat
1 6 40.000850 -196.000000 67.999950 1.000000 0.000000 0.000000 0.000000 0.000001 1.000000 0.000000 -1.000000 0.000001 15068.dat
1 6 40.000870 -155.999800 67.999960 1.000000 0.000000 0.000000 0.000000 0.000001 1.000000 0.000000 -1.000000 0.000001 15068.dat
1 6 10.000860 -166.000000 91.999950 1.000000 0.000000 0.000000 0.000000 0.000001 1.000000 0.000000 -1.000000 0.000001 50950.dat
1 6 -19.999150 -196.000000 67.999960 1.000000 0.000000 0.000000 0.000000 0.000001 1.000000 0.000000 -1.000000 0.000001 15068.dat
1 6 -19.999140 -155.999800 67.999940 1.000000 0.000000 0.000000 0.000000 0.000001 1.000000 0.000000 -1.000000 0.000001 15068.dat
1 6 -49.999140 -166.000000 91.999950 1.000000 0.000000 0.000000 0.000000 0.000001 1.000000 0.000000 -1.000000 0.000001 50950.dat
