1 SKIN 30.000860 -155.999800 67.999940 -1.000000 0.000000 0.000000 0.000000 0.000000 -1.000000 0.000000 -1.000000 0.000000 26603.dat
1 SKIN -67.999140 -156.000000 29.999930 0.000000 1.000000 0.000000 0.000000 0.000000 -1.000000 -1.000000 0.000000 0.000000 26603.dat
1 SKIN -67.999140 -196.000000 -30.000070 0.000000 1.000000 0.000000 0.000000 0.000000 -1.000000 -1.000000 0.000000 0.000000 26603.dat
1 SKIN -29.999140 -156.000000 67.999940 -1.000000 0.000000 0.000000 0.000000 0.000000 -1.000000 0.000000 -1.000000 0.000000 26603.dat
1 SKIN 68.000850 -156.000000 29.999930 0.000000 -1.000000 0.000000 0.000000 0.000000 -1.000000 1.000000 0.000000 0.000000 26603.dat
1 SKIN 68.000850 -196.000000 -30.000070 0.000000 -1.000000 0.000000 0.000000 0.000000 -1.000000 1.000000 0.000000 0.000000 26603.dat
1 0 0.000850 -196.000000 67.999940 -1.000000 0.000000 0.000000 0.000000 0.000000 -1.000000 0.000000 -1.000000 0.000000 3795.dat
1 0 -67.999140 -236.000000 0.000180 0.000000 1.000000 0.000000 0.000000 0.000000 -1.000000 -1.000000 0.000000 0.000000 3795.dat
1 0 -67.999140 -196.000000 30.000180 0.000000 1.000000 0.000000 0.000000 0.000000 1.000000 1.000000 0.000000 0.000000 3021.dat
1 0 0.000850 -236.000000 67.999940 -1.000000 0.000000 0.000000 0.000000 0.000000 -1.000000 0.000000 -1.000000 0.000000 3795.dat
1 0 68.000850 -236.000000 -0.000070 0.000000 -1.000000 0.000000 0.000000 0.000000 -1.000000 1.000000 0.000000 0.000000 3795.dat
1 0 68.000850 -196.000000 29.999930 0.000000 -1.000000 0.000000 0.000000 0.000000 1.000000 -1.000000 0.000000 0.000000 3021.dat
1 0 0.000850 -264.000000 -0.000050 0.000000 0.000000 -1.000000 0.000000 1.000000 0.000000 1.000000 0.000000 0.000000 3958.dat
1 0 -9.999149 -288.000000 -30.000050 1.000000 0.000000 0.000000 0.000000 1.000000 0.000000 0.000000 0.000000 1.000000 50950.dat
1 0 10.000850 -288.000000 -30.000050 1.000000 0.000000 0.000000 0.000000 1.000000 0.000000 0.000000 0.000000 1.000000 50950.dat
1 0 50.000850 -272.000000 -50.000050 1.000000 0.000000 0.000000 0.000000 1.000000 0.000000 0.000000 0.000000 1.000000 25269.dat
1 0 -49.999150 -272.000000 -50.000060 0.000000 0.000000 1.000000 0.000000 1.000000 0.000000 -1.000000 0.000000 0.000000 25269.dat
1 0 76.000850 -226.000000 -50.000070 0.000000 -1.000000 0.000000 1.000000 0.000000 0.000000 0.000000 0.000000 1.000000 25269.dat
1 0 76.000850 -226.000000 -30.000070 0.000000 -1.000000 0.000000 1.000000 0.000000 0.000000 0.000000 0.000000 1.000000 3070b.dat
1 0 68.000850 -226.000000 19.999930 0.000000 -1.000000 0.000000 1.000000 0.000000 0.000000 0.000000 0.000000 1.000000 93273.dat
1 0 76.000850 -226.000000 19.999930 0.000000 -1.000000 0.000000 0.000000 0.000000 1.000000 -1.000000 0.000000 0.000000 3023b.dat
1 0 68.000840 -246.000000 39.999930 0.000000 -1.000000 0.000000 -1.000000 0.000000 0.000000 0.000000 0.000000 -1.000000 11477.dat
1 0 76.000840 -246.000000 19.999930 0.000000 -1.000000 0.000000 0.000000 0.000000 1.000000 -1.000000 0.000000 0.000000 3023b.dat
1 0 -75.999140 -226.000000 -29.999820 0.000000 1.000000 0.000000 1.000000 0.000000 0.000000 0.000000 0.000000 -1.000000 3070b.dat
1 0 -75.999140 -226.000000 -49.999820 0.000000 1.000000 0.000000 0.000000 0.000000 -1.000000 -1.000000 0.000000 0.000000 25269.dat
1 0 -75.999140 -246.000000 20.000180 0.000000 1.000000 0.000000 0.000000 0.000000 -1.000000 -1.000000 0.000000 0.000000 3023b.dat
1 0 -75.999130 -226.000000 20.000180 0.000000 1.000000 0.000000 0.000000 0.000000 -1.000000 -1.000000 0.000000 0.000000 3023b.dat
1 0 -67.999140 -226.000000 20.000180 0.000000 1.000000 0.000000 -1.000000 0.000000 0.000000 0.000000 0.000000 1.000000 93273.dat
1 0 -67.999140 -246.000000 40.000180 0.000000 1.000000 0.000000 1.000000 0.000000 0.000000 0.000000 0.000000 -1.000000 11477.dat
1 0 76.000850 -186.000000 9.999929 0.000000 -1.000000 0.000000 1.000000 0.000000 0.000000 0.000000 0.000000 1.000000 25269.dat
1 0 76.000850 -206.000000 9.999929 0.000000 -1.000000 0.000000 1.000000 0.000000 0.000000 0.000000 0.000000 1.000000 3070b.dat
1 0 -75.999130 -186.000000 10.000180 0.000000 1.000000 0.000000 0.000000 0.000000 -1.000000 -1.000000 0.000000 0.000000 25269.dat
1 0 -75.999140 -206.000000 10.000180 0.000000 1.000000 0.000000 1.000000 0.000000 0.000000 0.000000 0.000000 -1.000000 3070b.dat
1 0 -75.999140 -196.000000 40.000180 0.000000 1.000000 0.000000 -1.000000 0.000000 0.000000 0.000000 0.000000 1.000000 3068b.dat
1 0 76.000850 -196.000000 39.999930 0.000000 -1.000000 0.000000 1.000000 0.000000 0.000000 0.000000 0.000000 1.000000 3068b.dat
1 0 -75.999140 -246.000000 -49.999820 0.000000 1.000000 0.000000 -1.000000 0.000000 0.000000 0.000000 0.000000 1.000000 25269.dat
1 0 76.000850 -246.000000 -50.000070 0.000000 -1.000000 0.000000 0.000000 0.000000 1.000000 -1.000000 0.000000 0.000000 25269.dat
1 0 -29.999150 -216.000000 67.999940 1.000000 0.000000 0.000000 0.000000 0.000000 1.000000 0.000000 -1.000000 0.000000 93273.dat
1 0 30.000850 -216.000000 67.999940 1.000000 0.000000 0.000000 0.000000 0.000000 1.000000 0.000000 -1.000000 0.000000 93273.dat
1 0 50.000850 -186.000000 75.999940 0.000000 0.000000 -1.000000 1.000000 0.000000 0.000000 0.000000 -1.000000 0.000000 25269.dat
1 0 -49.999160 -186.000000 75.999950 -1.000000 0.000000 0.000000 0.000000 0.000000 -1.000000 0.000000 -1.000000 0.000000 25269.dat
1 0 30.000850 -216.000000 75.999940 0.000000 0.000000 1.000000 -1.000000 0.000000 0.000000 0.000000 -1.000000 0.000000 3023b.dat
1 0 -29.999150 -216.000000 75.999940 0.000000 0.000000 1.000000 -1.000000 0.000000 0.000000 0.000000 -1.000000 0.000000 3023b.dat
1 0 50.000850 -206.000000 75.999950 -1.000000 0.000000 0.000000 0.000000 0.000000 -1.000000 0.000000 -1.000000 0.000000 3070b.dat
1 0 -49.999160 -206.000000 75.999940 -1.000000 0.000000 0.000000 0.000000 0.000000 -1.000000 0.000000 -1.000000 0.000000 3070b.dat
1 0 50.000850 -236.000000 75.999940 0.000000 0.000000 1.000000 -1.000000 0.000000 0.000000 0.000000 -1.000000 0.000000 3069b.dat
1 0 -49.999160 -236.000000 75.999940 0.000000 0.000000 1.000000 -1.000000 0.000000 0.000000 0.000000 -1.000000 0.000000 3069b.dat
1 0 0.000850 -272.000000 -0.000050 1.000000 0.000000 0.000000 0.000000 1.000000 0.000000 0.000000 0.000000 1.000000 3022.dat
1 0 0.000850 -280.000000 9.999949 1.000000 0.000000 0.000000 0.000000 1.000000 0.000000 0.000000 0.000000 1.000000 3023b.dat
1 0 0.000850 -288.000000 9.999949 1.000000 0.000000 0.000000 0.000000 1.000000 0.000000 0.000000 0.000000 1.000000 3069b.dat
1 0 -67.999140 -246.000000 -19.999820 0.000000 1.000000 0.000000 -1.000000 0.000000 0.000000 0.000000 0.000000 1.000000 11477.dat
1 0 68.000850 -246.000000 -20.000070 0.000000 -1.000000 0.000000 1.000000 0.000000 0.000000 0.000000 0.000000 1.000000 11477.dat
1 0 76.000850 -246.000000 -10.000070 0.000000 -1.000000 0.000000 1.000000 0.000000 0.000000 0.000000 0.000000 1.000000 3024.dat
1 0 84.000840 -246.000000 9.999929 0.000000 -1.000000 0.000000 1.000000 0.000000 0.000000 0.000000 0.000000 1.000000 3070b.dat
1 0 -75.999140 -246.000000 -9.999820 0.000000 1.000000 0.000000 -1.000000 0.000000 0.000000 0.000000 0.000000 1.000000 3024.dat
1 0 -83.999140 -246.000000 10.000180 0.000000 1.000000 0.000000 -1.000000 0.000000 0.000000 0.000000 0.000000 1.000000 3070b.dat
1 0 -9.999149 -216.000000 67.999940 1.000000 0.000000 0.000000 0.000000 0.000000 1.000000 0.000000 -1.000000 0.000000 93273.dat
1 0 -9.999149 -216.000000 75.999940 0.000000 0.000000 1.000000 -1.000000 0.000000 0.000000 0.000000 -1.000000 0.000000 3023b.dat
1 0 10.000850 -216.000000 67.999940 1.000000 0.000000 0.000000 0.000000 0.000000 1.000000 0.000000 -1.000000 0.000000 93273.dat
1 0 10.000850 -216.000000 75.999940 0.000000 0.000000 1.000000 -1.000000 0.000000 0.000000 0.000000 -1.000000 0.000000 3023b.dat
1 0 30.000860 -288.000000 19.999950 0.000000 0.000000 -1.000000 0.000000 1.000000 0.000000 1.000000 0.000000 0.000000 3937.dat
1 0 -29.999150 -288.000000 19.999950 0.000001 0.000000 1.000000 0.000000 1.000000 0.000000 -1.000000 0.000000 0.000001 3937.dat
1 0 -34.999150 -286.660300 19.999960 0.000000 0.500000 -0.866025 0.000000 0.866025 0.500000 1.000000 0.000000 0.000000 6134.dat
1 0 35.000860 -286.660300 19.999950 0.000000 -0.500000 0.866025 0.000000 0.866025 0.500000 -1.000000 0.000000 0.000000 6134.dat
1 0 30.000850 -272.000000 -20.000050 0.000000 0.000000 1.000000 0.000000 1.000000 0.000000 -1.000000 0.000000 0.000000 3023b.dat
1 0 -29.999150 -272.000000 -20.000050 0.000000 0.000000 1.000000 0.000000 1.000000 0.000000 -1.000000 0.000000 0.000000 3023b.dat
1 0 -29.999150 -264.000000 -40.000050 1.000000 0.000000 0.000000 0.000000 1.000000 0.000000 0.000000 0.000000 1.000000 11477.dat
1 0 30.000850 -264.000000 -40.000050 1.000000 0.000000 0.000000 0.000000 1.000000 0.000000 0.000000 0.000000 1.000000 11477.dat
1 0 -49.999150 -272.000000 -10.000050 1.000000 0.000000 0.000000 0.000000 1.000000 0.000000 0.000000 0.000000 1.000000 3024.dat
1 0 50.000850 -272.000000 -10.000050 1.000000 0.000000 0.000000 0.000000 1.000000 0.000000 0.000000 0.000000 1.000000 3024.dat
1 0 50.000850 -264.000000 -20.000050 1.000000 0.000000 0.000000 0.000000 1.000000 0.000000 0.000000 0.000000 1.000000 11477.dat
1 0 -49.999150 -264.000000 -20.000050 1.000000 0.000000 0.000000 0.000000 1.000000 0.000000 0.000000 0.000000 1.000000 11477.dat
1 0 -29.999140 -280.000000 -10.000050 1.000000 0.000000 0.000000 0.000000 1.000000 0.000000 0.000000 0.000000 1.000000 3070b.dat
1 0 30.000860 -280.000000 -10.000050 1.000000 0.000000 0.000000 0.000000 1.000000 0.000000 0.000000 0.000000 1.000000 3070b.dat
1 0 30.000800 -272.000000 49.999940 0.000000 0.000000 -1.000000 0.000000 1.000000 0.000000 1.000000 0.000000 0.000000 3024.dat
1 0 40.000850 -264.000000 49.999960 0.000000 0.000000 -1.000001 0.000000 1.000000 0.000000 1.000001 0.000000 0.000000 11477.dat
1 0 -29.999150 -272.000000 49.999960 0.000000 0.000000 1.000000 0.000000 1.000000 0.000000 -1.000000 0.000000 0.000000 3024.dat
1 0 -39.999160 -264.000000 49.999980 0.000000 0.000000 1.000000 0.000000 1.000000 0.000000 -1.000000 0.000000 0.000000 11477.dat
1 0 0.000850 -272.000000 39.999950 1.000000 0.000000 0.000000 0.000000 1.000000 0.000000 0.000000 0.000000 1.000000 3022.dat
1 0 0.000850 -280.000000 29.999950 1.000000 0.000000 0.000000 0.000000 1.000000 0.000000 0.000000 0.000000 1.000000 3023b.dat
1 0 0.000850 -272.000000 39.999960 -1.000000 0.000000 0.000000 0.000000 1.000000 0.000000 0.000000 0.000000 -1.000000 15068.dat
1 0 47.661120 -288.588500 19.999950 0.866025 -0.500000 0.000000 0.500000 0.866025 0.000000 0.000000 0.000000 1.000000 4032a.dat
1 0 51.661110 -295.516700 19.999950 0.866025 -0.500000 0.000000 0.500000 0.866025 0.000000 0.000000 0.000000 1.000000 4032a.dat
1 0 -47.659380 -288.588500 19.999960 0.866025 0.500000 0.000000 -0.500000 0.866025 0.000000 0.000000 0.000000 1.000000 4032a.dat
1 0 -51.659400 -295.516700 19.999960 0.866025 0.500000 0.000000 -0.500000 0.866025 0.000000 0.000000 0.000000 1.000000 4032a.dat
1 72 55.661100 -302.444900 19.999950 0.866025 -0.500000 0.000000 0.500000 0.866025 0.000000 0.000000 0.000000 1.000000 4032a.dat
1 72 -55.659420 -302.444900 19.999960 0.866025 0.500001 0.000000 -0.500001 0.866025 0.000000 0.000000 0.000000 1.000000 4032a.dat
1 0 76.981620 -299.373000 19.999950 0.866025 -0.500000 0.000000 0.500000 0.866025 0.000000 0.000000 0.000000 1.000000 3020.dat
1 0 -76.979930 -299.373100 19.999960 0.866025 0.500001 0.000000 -0.500001 0.866025 0.000000 0.000000 0.000000 1.000000 3020.dat
1 0 -76.979930 -299.373000 29.999960 0.000000 0.500001 0.866025 0.000000 0.866025 -0.500001 -1.000000 0.000000 0.000000 93273.dat
1 0 -80.979840 -306.300300 30.000100 -0.866025 0.499997 0.000000 0.500003 0.866025 0.000000 0.000000 0.000000 -1.000000 3023b.dat
1 0 -76.979920 -299.373000 9.999960 0.000000 0.500000 0.866025 0.000000 0.866025 -0.500001 -1.000000 0.000000 0.000000 93273.dat
1 0 -80.979800 -306.300000 10.000100 -0.866026 0.499997 0.000000 0.500002 0.866025 0.000000 0.000000 0.000000 -1.000000 3023b.dat
1 0 76.981620 -299.373100 9.999960 0.000000 -0.500000 0.866026 0.000000 0.866025 0.500000 -1.000000 0.000000 0.000000 93273.dat
1 0 80.980620 -306.300500 10.000090 -0.866028 -0.500002 0.000000 -0.499999 0.866022 0.000000 0.000000 0.000000 -1.000000 3023b.dat
1 0 76.981620 -299.373000 29.999960 0.000000 -0.500000 0.866025 0.000000 0.866026 0.500000 -1.000000 0.000000 0.000000 93273.dat
1 0 80.980640 -306.300500 30.000090 -0.866029 -0.500002 0.000000 -0.499999 0.866022 0.000000 0.000000 0.000000 -1.000000 3023b.dat
1 0 98.962360 -277.444900 9.999949 0.000000 -0.500000 -0.866025 0.000000 0.866025 -0.500000 1.000000 0.000000 0.000000 36841.dat
1 0 98.962360 -277.444800 29.999960 0.000000 -0.500000 -0.866025 0.000000 0.866025 -0.500000 1.000000 0.000000 0.000000 36841.dat
1 0 -98.960670 -277.444900 9.999960 0.000000 0.500000 0.866025 0.000000 0.866025 -0.500000 -1.000000 0.000000 0.000000 36841.dat
1 0 -98.960670 -277.444900 29.999950 0.000000 0.500000 0.866025 0.000000 0.866025 -0.500000 -1.000000 0.000000 0.000000 36841.dat
1 0 -81.640170 -287.444900 29.999960 0.000000 0.500001 -0.866025 0.000000 0.866025 0.500001 1.000000 0.000000 0.000000 24201.dat
1 0 -81.640170 -287.444900 9.999960 0.000000 0.500001 -0.866025 0.000000 0.866025 0.500001 1.000000 0.000000 0.000000 24201.dat
1 0 81.641880 -287.444800 9.999949 0.000000 -0.500001 0.866025 0.000000 0.866025 0.500001 -1.000000 0.000000 0.000000 24201.dat
1 0 81.641870 -287.444800 29.999950 0.000000 -0.500000 0.866025 0.000000 0.866025 0.500001 -1.000000 0.000000 0.000000 24201.dat
1 0 -101.085000 -253.124400 19.999960 0.000000 0.866025 0.500000 0.000000 -0.500000 0.866025 1.000000 0.000000 0.000000 15068.dat
1 0 101.086700 -253.124400 19.999960 0.000000 -0.866026 -0.500000 0.000000 -0.500000 0.866026 -1.000000 0.000000 0.000000 15068.dat
