1 SKIN 30.000860 -155.999800 67.999940 -1.000000 0.000000 0.000000 0.000000 0.000000 -1.000000 0.000000 -1.000000 0.000000 26603.dat
1 0 0.000850 -196.000000 67.999940 -1.000000 0.000000 0.000000 0.000000 0.000000 -1.000000 0.000000 -1.000000 0.000000 3795.dat
1 0 -67.999140 -236.000000 0.000180 0.000000 1.000000 0.000000 0.000000 0.000000 -1.000000 -1.000000 0.000000 0.000000 3795.dat
1 0 -67.999140 -196.000000 30.000180 0.000000 1.000000 0.000000 0.000000 0.000000 1.000000 1.000000 0.000000 0.000000 3021.dat
1 SKIN -67.999140 -156.000000 29.999930 0.000000 1.000000 0.000000 0.000000 0.000000 -1.000000 -1.000000 0.000000 0.000000 26603.dat
1 SKIN -67.999140 -196.000000 -30.000070 0.000000 1.000000 0.000000 0.000000 0.000000 -1.000000 -1.000000 0.000000 0.000000 26603.dat
1 SKIN -29.999140 -156.000000 67.999940 -1.000000 0.000000 0.000000 0.000000 0.000000 -1.000000 0.000000 -1.000000 0.000000 26603.dat
1 SKIN 68.000850 -156.000000 29.999930 0.000000 -1.000000 0.000000 0.000000 0.000000 -1.000000 1.000000 0.000000 0.000000 26603.dat
1 SKIN 68.000850 -196.000000 -30.000070 0.000000 -1.000000 0.000000 0.000000 0.000000 -1.000000 1.000000 0.000000 0.000000 26603.dat
1 0 0.000850 -236.000000 67.999940 -1.000000 0.000000 0.000000 0.000000 0.000000 -1.000000 0.000000 -1.000000 0.000000 3795.dat
1 0 68.000850 -236.000000 -0.000070 0.000000 -1.000000 0.000000 0.000000 0.000000 -1.000000 1.000000 0.000000 0.000000 3795.dat
1 0 68.000850 -196.000000 29.999930 0.000000 -1.000000 0.000000 0.000000 0.000000 1.000000 -1.000000 0.000000 0.000000 3021.dat
1 0 0.000850 -264.000000 -0.000050 0.000000 0.000000 -1.000000 0.000000 1.000000 0.000000 1.000000 0.000000 0.000000 3958.dat
1 0 -9.999149 -288.000000 -30.000050 1.000000 0.000000 0.000000 0.000000 1.000000 0.000000 0.000000 0.000000 1.000000 50950.dat
1 0 10.000850 -288.000000 -30.000050 1.000000 0.000000 0.000000 0.000000 1.000000 0.000000 0.000000 0.000000 1.000000 50950.dat
1 0 50.000850 -272.000000 -50.000050 1.000000 0.000000 0.000000 0.000000 1.000000 0.000000 0.000000 0.000000 1.000000 25269.dat
1 0 -49.999150 -272.000000 -50.000060 0.000000 0.000000 1.000000 0.000000 1.000000 0.000000 -1.000000 0.000000 0.000000 25269.dat
1 0 30.000850 -264.000000 -40.000050 1.000000 0.000000 0.000000 0.000000 1.000000 0.000000 0.000000 0.000000 1.000000 11477.dat
1 0 -29.999150 -264.000000 -40.000050 1.000000 0.000000 0.000000 0.000000 1.000000 0.000000 0.000000 0.000000 1.000000 11477.dat
1 0 -29.999160 -272.000000 -0.000050 0.000000 0.000000 1.000000 0.000000 1.000000 0.000000 -1.000000 0.000000 0.000000 3710.dat
1 0 30.000860 -272.000000 -0.000050 0.000000 0.000000 1.000000 0.000000 1.000000 0.000000 -1.000000 0.000000 0.000000 3710.dat
1 0 30.000850 -264.000000 39.999950 -1.000000 0.000000 0.000000 0.000000 1.000000 0.000000 0.000000 0.000000 -1.000000 11477.dat
1 0 -29.999160 -264.000000 39.999950 -1.000000 0.000000 0.000000 0.000000 1.000000 0.000000 0.000000 0.000000 -1.000000 11477.dat
1 0 -49.999140 -272.000000 -0.000050 0.000000 0.000000 1.000000 0.000000 1.000000 0.000000 -1.000000 0.000000 0.000000 2431.dat
1 0 50.000860 -272.000000 -0.000050 0.000000 0.000000 1.000000 0.000000 1.000000 0.000000 -1.000000 0.000000 0.000000 2431.dat
1 0 -29.999160 -280.000000 -0.000050 0.000000 0.000000 1.000000 0.000000 1.000000 0.000000 -1.000000 0.000000 0.000000 3069b.dat
1 0 30.000860 -280.000000 -0.000050 0.000000 0.000000 1.000000 0.000000 1.000000 0.000000 -1.000000 0.000000 0.000000 3069b.dat
1 0 76.000850 -226.000000 -50.000070 0.000000 -1.000000 0.000000 1.000000 0.000000 0.000000 0.000000 0.000000 1.000000 25269.dat
1 0 76.000850 -226.000000 -30.000070 0.000000 -1.000000 0.000000 1.000000 0.000000 0.000000 0.000000 0.000000 1.000000 3070b.dat
1 0 68.000850 -226.000000 19.999930 0.000000 -1.000000 0.000000 1.000000 0.000000 0.000000 0.000000 0.000000 1.000000 93273.dat
1 0 76.000850 -226.000000 19.999930 0.000000 -1.000000 0.000000 0.000000 0.000000 1.000000 -1.000000 0.000000 0.000000 3023b.dat
1 0 68.000840 -246.000000 39.999930 0.000000 -1.000000 0.000000 -1.000000 0.000000 0.000000 0.000000 0.000000 -1.000000 11477.dat
1 0 76.000840 -246.000000 19.999930 0.000000 -1.000000 0.000000 0.000000 0.000000 1.000000 -1.000000 0.000000 0.000000 3023b.dat
1 0 -75.999140 -226.000000 -29.999820 0.000000 1.000000 0.000000 1.000000 0.000000 0.000000 0.000000 0.000000 -1.000000 3070b.dat
1 0 -75.999140 -226.000000 -49.999820 0.000000 1.000000 0.000000 0.000000 0.000000 -1.000000 -1.000000 0.000000 0.000000 25269.dat
1 0 -75.999140 -246.000000 20.000180 0.000000 1.000000 0.000000 0.000000 0.000000 -1.000000 -1.000000 0.000000 0.000000 3023b.dat
1 0 -75.999130 -226.000000 20.000180 0.000000 1.000000 0.000000 0.000000 0.000000 -1.000000 -1.000000 0.000000 0.000000 3023b.dat
1 0 -67.999140 -226.000000 20.000180 0.000000 1.000000 0.000000 -1.000000 0.000000 0.000000 0.000000 0.000000 1.000000 93273.dat
1 0 -67.999140 -246.000000 40.000180 0.000000 1.000000 0.000000 1.000000 0.000000 0.000000 0.000000 0.000000 -1.000000 11477.dat
1 0 76.000850 -186.000000 9.999929 0.000000 -1.000000 0.000000 1.000000 0.000000 0.000000 0.000000 0.000000 1.000000 25269.dat
1 0 76.000850 -206.000000 9.999929 0.000000 -1.000000 0.000000 1.000000 0.000000 0.000000 0.000000 0.000000 1.000000 3070b.dat
1 0 -75.999130 -186.000000 10.000180 0.000000 1.000000 0.000000 0.000000 0.000000 -1.000000 -1.000000 0.000000 0.000000 25269.dat
1 0 -75.999140 -206.000000 10.000180 0.000000 1.000000 0.000000 1.000000 0.000000 0.000000 0.000000 0.000000 -1.000000 3070b.dat
1 0 -75.999140 -196.000000 40.000180 0.000000 1.000000 0.000000 -1.000000 0.000000 0.000000 0.000000 0.000000 1.000000 3068b.dat
1 0 76.000850 -196.000000 39.999930 0.000000 -1.000000 0.000000 1.000000 0.000000 0.000000 0.000000 0.000000 1.000000 3068b.dat
1 0 -75.999140 -246.000000 -49.999820 0.000000 1.000000 0.000000 -1.000000 0.000000 0.000000 0.000000 0.000000 1.000000 25269.dat
1 0 76.000850 -246.000000 -50.000070 0.000000 -1.000000 0.000000 0.000000 0.000000 1.000000 -1.000000 0.000000 0.000000 25269.dat
1 0 -29.999150 -216.000000 67.999940 1.000000 0.000000 0.000000 0.000000 0.000000 1.000000 0.000000 -1.000000 0.000000 93273.dat
1 0 30.000850 -216.000000 67.999940 1.000000 0.000000 0.000000 0.000000 0.000000 1.000000 0.000000 -1.000000 0.000000 93273.dat
1 0 50.000850 -186.000000 75.999940 0.000000 0.000000 -1.000000 1.000000 0.000000 0.000000 0.000000 -1.000000 0.000000 25269.dat
1 0 -49.999160 -186.000000 75.999950 -1.000000 0.000000 0.000000 0.000000 0.000000 -1.000000 0.000000 -1.000000 0.000000 25269.dat
1 0 -49.999150 -272.000000 49.999950 -1.000000 0.000000 0.000000 0.000000 1.000000 0.000000 0.000000 0.000000 -1.000000 3070b.dat
1 0 50.000850 -272.000000 49.999960 -1.000000 0.000000 0.000000 0.000000 1.000000 0.000000 0.000000 0.000000 -1.000000 3070b.dat
1 0 30.000850 -216.000000 75.999940 0.000000 0.000000 1.000000 -1.000000 0.000000 0.000000 0.000000 -1.000000 0.000000 3023b.dat
1 0 -29.999150 -216.000000 75.999940 0.000000 0.000000 1.000000 -1.000000 0.000000 0.000000 0.000000 -1.000000 0.000000 3023b.dat
1 0 50.000850 -206.000000 75.999950 -1.000000 0.000000 0.000000 0.000000 0.000000 -1.000000 0.000000 -1.000000 0.000000 3070b.dat
1 0 -49.999160 -206.000000 75.999940 -1.000000 0.000000 0.000000 0.000000 0.000000 -1.000000 0.000000 -1.000000 0.000000 3070b.dat
1 0 50.000850 -236.000000 75.999940 0.000000 0.000000 1.000000 -1.000000 0.000000 0.000000 0.000000 -1.000000 0.000000 3069b.dat
1 0 -49.999160 -236.000000 75.999940 0.000000 0.000000 1.000000 -1.000000 0.000000 0.000000 0.000000 -1.000000 0.000000 3069b.dat
1 0 -9.999149 -287.999900 50.000040 -1.000000 0.000000 0.000000 0.000000 1.000000 0.000000 0.000000 0.000000 -1.000000 87087.dat
1 0 10.000850 -287.999900 50.000040 -1.000000 0.000000 0.000000 0.000000 1.000000 0.000000 0.000000 0.000000 -1.000000 87087.dat
1 0 0.000850 -216.000000 75.999940 0.000000 0.000000 1.000000 -1.000000 0.000000 0.000000 0.000000 -1.000000 0.000000 87079.dat
1 0 0.000850 -287.999900 40.000170 1.000000 0.000000 0.000000 0.000000 1.000000 0.000000 0.000000 0.000000 1.000000 7532.dat
1 0 0.000850 -287.999900 40.000170 0.000000 0.000000 1.000000 0.000000 1.000000 0.000000 -1.000000 0.000000 0.000000 7532.dat
1 72 0.000850 -295.999800 40.000170 1.000000 0.000000 0.000000 0.000000 1.000000 0.000000 0.000000 0.000000 1.000000 4032a.dat
1 0 0.000850 -227.998700 83.999820 0.000000 0.000000 1.000000 -1.000000 0.000000 0.000000 0.000000 -1.000000 0.000000 3795.dat
1 0 0.000820 -207.998700 91.999770 0.000000 0.000000 1.000000 -1.000000 0.000000 0.000000 0.000000 -1.000000 0.000000 3795.dat
1 0 0.000850 -295.999800 40.000170 1.000000 0.000000 0.000000 0.000000 1.000000 0.000000 0.000000 0.000000 1.000000 15068.dat
1 0 0.000850 -303.999800 50.000020 1.000000 0.000000 0.000000 0.000000 1.000000 0.000000 0.000000 0.000000 1.000000 3023b.dat
1 0 0.000850 -167.998800 91.999970 -1.000000 0.000000 0.000000 0.000000 0.000000 -0.999991 0.000000 -0.999992 0.000000 15068.dat
1 0 0.000850 -247.999200 91.999770 1.000000 0.000000 0.000000 0.000000 0.000000 1.000000 0.000000 -1.000000 0.000000 15068.dat
1 0 0.000850 -207.998700 99.999880 0.000000 0.000000 1.000000 -1.000000 0.000000 0.000000 0.000000 -1.000000 0.000000 3020.dat
1 0 0.000850 -207.998700 107.999800 1.000000 0.000000 0.000000 0.000000 0.000000 1.000000 0.000000 -1.000000 0.000000 3068b.dat
1 0 0.000870 -277.998700 67.999870 -1.000000 0.000000 0.000000 0.000000 0.000000 -0.999991 0.000000 -0.999992 0.000000 3023b.dat
1 0 0.000850 -272.000000 -0.000050 1.000000 0.000000 0.000000 0.000000 1.000000 0.000000 0.000000 0.000000 1.000000 3022.dat
1 0 0.000850 -280.000000 9.999949 1.000000 0.000000 0.000000 0.000000 1.000000 0.000000 0.000000 0.000000 1.000000 3023b.dat
1 0 0.000850 -288.000000 9.999949 1.000000 0.000000 0.000000 0.000000 1.000000 0.000000 0.000000 0.000000 1.000000 3069b.dat
1 0 10.000850 -277.998700 83.999820 1.000000 0.000000 0.000000 0.000000 0.000000 1.000000 0.000000 -1.000000 0.000000 5841.dat
1 0 -9.999149 -277.998700 83.999820 1.000000 0.000000 0.000000 0.000000 0.000000 1.000000 0.000000 -1.000000 0.000000 5841.dat
1 0 0.000850 -277.998700 83.999820 1.000000 0.000000 0.000000 0.000000 0.000000 1.000000 0.000000 -1.000000 0.000000 85984.dat
1 0 -67.999140 -246.000000 -19.999820 0.000000 1.000000 0.000000 -1.000000 0.000000 0.000000 0.000000 0.000000 1.000000 11477.dat
1 0 68.000850 -246.000000 -20.000070 0.000000 -1.000000 0.000000 1.000000 0.000000 0.000000 0.000000 0.000000 1.000000 11477.dat
1 0 76.000850 -246.000000 -10.000070 0.000000 -1.000000 0.000000 1.000000 0.000000 0.000000 0.000000 0.000000 1.000000 3024.dat
1 0 84.000840 -246.000000 9.999929 0.000000 -1.000000 0.000000 1.000000 0.000000 0.000000 0.000000 0.000000 1.000000 3070b.dat
1 0 -75.999140 -246.000000 -9.999820 0.000000 1.000000 0.000000 -1.000000 0.000000 0.000000 0.000000 0.000000 1.000000 3024.dat
1 0 -83.999140 -246.000000 10.000180 0.000000 1.000000 0.000000 -1.000000 0.000000 0.000000 0.000000 0.000000 1.000000 3070b.dat
