1 0 0.000850 -196.000000 67.999940 -1.000000 0.000000 0.000000 0.000000 0.000000 -1.000000 0.000000 -1.000000 0.000000 3795.dat
1 0 -67.999140 -236.000000 0.000180 0.000000 1.000000 0.000000 0.000000 0.000000 -1.000000 -1.000000 0.000000 0.000000 3795.dat
1 0 -67.999140 -196.000000 30.000180 0.000000 1.000000 0.000000 0.000000 0.000000 1.000000 1.000000 0.000000 0.000000 3021.dat
1 0 0.000850 -236.000000 67.999940 -1.000000 0.000000 0.000000 0.000000 0.000000 -1.000000 0.000000 -1.000000 0.000000 3795.dat
1 0 68.000850 -236.000000 -0.000070 0.000000 -1.000000 0.000000 0.000000 0.000000 -1.000000 1.000000 0.000000 0.000000 3795.dat
1 0 68.000850 -196.000000 29.999930 0.000000 -1.000000 0.000000 0.000000 0.000000 1.000000 -1.000000 0.000000 0.000000 3021.dat
1 0 0.000850 -264.000000 -0.000050 0.000000 0.000000 -1.000000 0.000000 1.000000 0.000000 1.000000 0.000000 0.000000 3958.dat
1 0 -83.999110 -166.000000 -49.999820 0.000000 1.000000 0.000000 0.000000 0.000000 -1.000000 -1.000000 0.000000 0.000000 25269.dat
1 0 92.000820 -186.000000 -50.000080 0.000000 -1.000000 0.000000 0.000000 0.000000 1.000000 -1.000000 0.000000 0.000000 25269.dat
1 0 -19.999150 -272.000000 -50.000060 0.000000 0.000000 -1.000000 0.000000 1.000000 0.000000 1.000000 0.000000 0.000000 11477.dat
1 0 -67.999110 -156.000000 30.000000 0.000000 1.000000 0.000000 0.000000 0.000000 -1.000000 -1.000000 0.000000 0.000000 3021.dat
1 SKIN -67.999000 -196.000000 -30.000000 0.000000 1.000000 0.000000 0.000000 0.000000 -1.000000 -1.000000 0.000000 0.000000 3021.dat
1 0 -29.999140 -155.999800 67.999920 -1.000000 0.000000 0.000000 0.000000 0.000000 -1.000000 0.000000 -1.000000 0.000000 3021.dat
1 0 30.000860 -155.999800 67.999950 -1.000000 0.000000 0.000000 0.000000 0.000000 -1.000000 0.000000 -1.000000 0.000000 3021.dat
1 0 68.000850 -156.000000 29.999890 0.000000 -1.000000 0.000000 0.000000 0.000000 -1.000000 1.000000 0.000000 0.000000 3021.dat
1 SKIN 68.000880 -196.000000 -30.000090 0.000000 -1.000000 0.000000 0.000000 0.000000 -1.000000 1.000000 0.000000 0.000000 3021.dat
1 0 -67.999140 -236.000000 -39.999820 0.000000 1.000000 0.000000 0.000000 0.000000 1.000000 1.000000 0.000000 0.000000 15068.dat
1 0 -75.999130 -196.000000 -39.999820 0.000000 1.000000 0.000000 -1.000000 0.000000 0.000000 0.000000 0.000000 1.000000 3020.dat
1 0 -83.999130 -196.000000 -49.999820 0.000000 1.000000 0.000000 -1.000000 0.000000 0.000000 0.000000 0.000000 1.000000 3023a.dat
1 0 -91.999130 -186.000000 -49.999820 0.000000 1.000000 0.000000 -1.000000 0.000000 0.000000 0.000000 0.000000 1.000000 25269.dat
1 0 -83.999110 -196.000000 -29.999820 0.000000 1.000000 0.000000 -1.000000 0.000000 0.000000 0.000000 0.000000 1.000000 15573.dat
1 0 -91.999110 -186.000000 -29.999820 0.000000 1.000000 0.000000 -1.000000 0.000000 0.000000 0.000000 0.000000 1.000000 3023a.dat
1 0 -99.999130 -176.000000 -29.999830 0.000000 1.000000 0.000000 -1.000000 0.000000 0.000000 0.000000 0.000000 1.000000 25269.dat
1 0 -75.999020 -176.000000 0.000000 0.000000 1.000000 0.000000 -1.000000 0.000000 0.000000 0.000000 0.000000 1.000000 3020.dat
1 0 -75.999140 -156.000000 40.000180 0.000000 1.000000 0.000000 -1.000000 0.000000 0.000000 0.000000 0.000000 1.000000 3020.dat
1 0 -67.999140 -216.000000 -9.999810 0.000000 1.000000 0.000000 -0.000001 0.000000 1.000000 1.000000 0.000000 0.000001 11477.dat
1 0 -75.999020 -156.000000 -10.000000 0.000000 1.000000 0.000000 0.000000 0.000000 1.000000 1.000000 0.000000 0.000000 11477.dat
1 0 -67.999140 -236.000000 10.000180 0.000000 1.000000 0.000000 -0.000001 0.000000 1.000000 1.000000 0.000000 0.000000 11477.dat
1 0 -67.999140 -236.000000 50.000180 0.000000 1.000000 0.000000 0.000000 0.000000 1.000000 1.000000 0.000000 0.000000 11477.dat
1 0 -67.999140 -216.000000 30.000180 0.000000 1.000000 0.000000 0.000000 0.000000 1.000000 1.000000 0.000000 0.000000 11477.dat
1 0 -75.999140 -176.000000 50.000180 0.000000 1.000000 0.000000 0.000000 0.000000 1.000000 1.000000 0.000000 0.000000 11477.dat
1 0 -75.999160 -116.000000 50.000190 0.000000 1.000000 0.000000 0.000000 0.000000 1.000000 1.000000 0.000000 0.000000 11477.dat
1 0 -75.999010 -176.000000 10.000000 0.000000 1.000000 0.000000 0.000000 0.000000 1.000000 1.000000 0.000000 0.000000 11477.dat
1 0 -75.999140 -156.000000 30.000180 0.000000 1.000000 0.000000 0.000000 0.000000 1.000000 1.000000 0.000000 0.000000 11477.dat
1 0 -83.999030 -146.000000 10.000000 0.000000 1.000000 0.000000 0.000000 0.000000 -1.000000 -1.000000 0.000000 0.000000 25269.dat
1 0 -83.999140 -126.000000 30.000180 0.000000 1.000000 0.000000 0.000000 0.000000 -1.000000 -1.000000 0.000000 0.000000 25269.dat
1 0 68.000850 -236.000000 -40.000080 0.000000 -1.000000 0.000000 -0.000001 0.000000 1.000000 -1.000000 0.000000 -0.000001 15068.dat
1 0 84.000840 -196.000000 -50.000080 0.000001 -1.000000 0.000000 -1.000000 0.000000 0.000000 0.000000 0.000000 -1.000000 3023a.dat
1 0 84.000840 -166.000000 -50.000100 0.000000 -1.000000 0.000000 1.000000 0.000000 0.000000 0.000000 0.000000 1.000000 25269.dat
1 0 84.000830 -196.000000 -30.000080 0.000001 -1.000000 0.000000 -1.000000 0.000000 0.000000 0.000000 0.000000 -1.000000 15573.dat
1 0 92.000840 -186.000000 -30.000080 0.000001 -1.000000 0.000000 -1.000000 0.000000 0.000000 0.000000 0.000000 -1.000000 3023a.dat
1 0 68.000880 -216.000000 -10.000080 0.000000 -1.000000 0.000000 -0.000001 0.000000 1.000000 -1.000000 0.000000 -0.000001 11477.dat
1 0 76.000880 -156.000000 -10.000110 0.000000 -1.000000 0.000000 -0.000001 0.000000 1.000000 -1.000000 0.000000 -0.000001 11477.dat
1 0 68.000850 -236.000000 9.999920 0.000000 -1.000000 0.000000 -0.000001 0.000000 1.000000 -1.000000 0.000000 -0.000001 11477.dat
1 0 68.000850 -236.000000 49.999920 0.000000 -1.000000 0.000000 -0.000001 0.000000 1.000000 -1.000000 0.000000 -0.000001 11477.dat
1 0 68.000850 -216.000000 29.999920 0.000000 -1.000000 0.000000 -0.000001 0.000000 1.000000 -1.000000 0.000000 -0.000001 11477.dat
1 0 76.000840 -176.000000 49.999920 0.000000 -1.000000 0.000000 -0.000001 0.000000 1.000000 -1.000000 0.000000 -0.000001 11477.dat
1 0 76.000840 -116.000000 49.999900 0.000000 -1.000000 0.000000 -0.000001 0.000000 1.000000 -1.000000 0.000000 -0.000001 11477.dat
1 0 76.000880 -176.000000 9.999900 0.000000 -1.000000 0.000000 0.000000 0.000000 1.000000 -1.000000 0.000000 0.000000 11477.dat
1 0 76.000840 -156.000000 29.999920 0.000000 -1.000000 0.000000 -0.000001 0.000000 1.000000 -1.000000 0.000000 -0.000001 11477.dat
1 0 84.000870 -146.000000 9.999889 0.000000 -1.000000 0.000000 1.000000 0.000000 0.000000 0.000000 0.000000 1.000000 25269.dat
1 0 84.000850 -126.000000 29.999900 0.000000 -1.000000 0.000000 1.000000 0.000000 0.000001 -0.000001 0.000000 1.000000 25269.dat
1 0 76.000840 -196.000000 -40.000080 0.000000 -1.000000 0.000000 1.000000 0.000000 0.000000 0.000000 0.000000 1.000000 3020.dat
1 0 100.000800 -176.000000 -30.000090 0.000000 -1.000000 0.000000 0.000000 0.000000 1.000000 -1.000000 0.000000 0.000000 25269.dat
1 0 76.000880 -176.000000 -0.000100 0.000000 -1.000000 0.000000 1.000000 0.000000 0.000000 0.000000 0.000000 1.000000 3020.dat
1 0 76.000840 -156.000000 39.999920 0.000000 -1.000000 0.000000 1.000000 0.000000 0.000000 0.000000 0.000000 1.000000 3020.dat
1 0 50.000860 -176.000000 75.999950 0.000000 0.000000 1.000000 -1.000000 0.000000 0.000000 0.000000 -1.000000 0.000000 3666.dat
1 0 30.000860 -156.000000 75.999950 0.000000 0.000000 1.000000 -1.000000 0.000000 0.000000 0.000000 -1.000000 0.000000 3666.dat
1 0 10.000860 -136.000000 75.999950 0.000000 0.000000 1.000000 -1.000000 0.000000 0.000000 0.000000 -1.000000 0.000000 3666.dat
1 0 -9.999140 -136.000000 75.999950 0.000000 0.000000 1.000000 -1.000000 0.000000 0.000000 0.000000 -1.000000 0.000000 3666.dat
1 0 -29.999140 -156.000000 75.999950 0.000000 0.000000 1.000000 -1.000000 0.000000 0.000000 0.000000 -1.000000 0.000000 3666.dat
1 0 -49.999140 -176.000000 75.999950 0.000000 0.000000 1.000000 -1.000000 0.000000 0.000000 0.000000 -1.000000 0.000000 3666.dat
1 0 50.000860 -236.000000 67.999960 1.000000 0.000000 0.000000 0.000000 -0.000001 1.000000 0.000000 -1.000000 -0.000001 11477.dat
1 0 30.000850 -216.000000 67.999950 1.000000 0.000000 0.000000 0.000000 -0.000001 1.000000 0.000000 -1.000000 -0.000001 11477.dat
1 0 50.000860 -176.000000 75.999940 1.000000 0.000000 0.000000 0.000000 -0.000001 1.000000 0.000000 -1.000000 -0.000001 11477.dat
1 0 30.000860 -156.000000 75.999940 1.000000 0.000000 0.000000 0.000000 -0.000001 1.000000 0.000000 -1.000000 -0.000001 11477.dat
1 0 50.000880 -116.000000 75.999950 1.000000 0.000000 0.000000 0.000000 -0.000001 1.000000 0.000000 -1.000000 -0.000001 11477.dat
1 0 30.000880 -95.999980 75.999950 1.000000 0.000000 0.000000 0.000000 -0.000001 1.000000 0.000000 -1.000000 -0.000001 11477.dat
1 0 10.000850 -236.000000 67.999920 1.000000 0.000000 0.000000 0.000000 -0.000001 1.000000 0.000000 -1.000000 -0.000001 11477.dat
1 0 10.000850 -196.000000 67.999940 1.000000 0.000000 0.000000 0.000000 -0.000001 1.000000 0.000000 -1.000000 -0.000001 11477.dat
1 0 -9.999149 -216.000000 67.999940 1.000000 0.000000 0.000000 0.000000 -0.000001 1.000000 0.000000 -1.000000 -0.000001 11477.dat
1 0 -9.999149 -156.000000 75.999940 1.000000 0.000000 0.000000 0.000000 -0.000001 1.000000 0.000000 -1.000000 -0.000001 11477.dat
1 0 -9.999129 -96.000000 75.999940 1.000000 0.000000 0.000000 0.000000 -0.000001 1.000000 0.000000 -1.000000 -0.000001 11477.dat
1 0 10.000860 -136.000000 75.999940 1.000000 0.000000 0.000000 0.000000 -0.000001 1.000000 0.000000 -1.000000 -0.000001 11477.dat
1 0 -29.999150 -216.000000 67.999960 1.000000 0.000000 0.000000 0.000000 -0.000001 1.000000 0.000000 -1.000000 -0.000001 11477.dat
1 0 -49.999140 -236.000000 67.999950 1.000000 0.000000 0.000000 0.000000 -0.000001 1.000000 0.000000 -1.000000 -0.000001 11477.dat
1 0 -49.999140 -176.000000 75.999940 1.000000 0.000000 0.000000 0.000000 -0.000001 1.000000 0.000000 -1.000000 -0.000001 11477.dat
1 0 -29.999130 -116.000000 75.999950 1.000000 0.000000 0.000000 0.000000 -0.000001 1.000000 0.000000 -1.000000 -0.000001 11477.dat
1 0 -49.999130 -116.000000 75.999960 1.000000 0.000000 0.000000 0.000000 -0.000001 1.000000 0.000000 -1.000000 -0.000001 11477.dat
1 0 -29.999140 -176.000000 75.999940 1.000000 0.000000 0.000000 0.000000 -0.000001 1.000000 0.000000 -1.000000 -0.000001 11477.dat
1 0 10.000860 -86.000000 83.999950 1.000000 0.000000 0.000000 0.000000 0.000000 1.000000 0.000000 -1.000000 0.000000 25269.dat
1 0 -39.999160 -264.000000 -40.000060 0.000000 0.000000 1.000000 -0.000001 1.000000 0.000000 -1.000000 -0.000001 0.000000 15068.dat
1 0 -39.999150 -264.000000 -0.000050 0.000000 0.000000 1.000000 -0.000001 1.000000 0.000000 -1.000000 -0.000001 0.000000 15068.dat
1 0 -39.999160 -264.000000 39.999950 0.000000 0.000000 1.000000 -0.000001 1.000000 0.000000 -1.000000 -0.000001 0.000000 15068.dat
1 0 40.000850 -264.000000 -40.000060 0.000000 0.000000 -1.000000 0.000001 1.000000 0.000000 1.000000 -0.000001 0.000000 15068.dat
1 0 40.000850 -264.000000 -0.000050 0.000000 0.000000 -1.000000 0.000001 1.000000 0.000000 1.000000 -0.000001 0.000000 15068.dat
1 0 40.000850 -264.000000 39.999950 0.000000 0.000000 -1.000000 0.000001 1.000000 0.000000 1.000000 -0.000001 0.000000 15068.dat
1 0 0.000840 -272.000000 -0.000050 0.000000 0.000000 -1.000000 0.000000 1.000000 0.000000 1.000000 0.000000 0.000000 3032.dat
1 0 -19.999150 -272.000000 -30.000060 0.000000 0.000000 -1.000000 0.000000 1.000000 0.000000 1.000000 0.000000 0.000000 11477.dat
1 0 -19.999160 -272.000000 -10.000050 0.000000 0.000000 -1.000000 0.000000 1.000000 0.000000 1.000000 0.000000 0.000000 11477.dat
1 0 -19.999160 -272.000000 9.999949 0.000000 0.000000 -1.000000 0.000000 1.000000 0.000000 1.000000 0.000000 0.000000 11477.dat
1 0 -19.999160 -272.000000 29.999950 0.000000 0.000000 -1.000000 0.000000 1.000000 0.000000 1.000000 0.000000 0.000000 11477.dat
1 0 -19.999160 -272.000000 49.999960 0.000000 0.000000 -1.000000 0.000000 1.000000 0.000000 1.000000 0.000000 0.000000 11477.dat
1 0 20.000860 -272.000000 -50.000050 0.000000 0.000000 1.000000 0.000000 1.000000 0.000000 -1.000000 0.000000 0.000000 11477.dat
1 0 20.000850 -272.000000 -30.000050 0.000000 0.000000 1.000000 0.000000 1.000000 0.000000 -1.000000 0.000000 0.000000 11477.dat
1 0 20.000850 -272.000000 -10.000050 0.000000 0.000000 1.000000 0.000000 1.000000 0.000000 -1.000000 0.000000 0.000000 11477.dat
1 0 20.000840 -272.000000 9.999960 0.000000 0.000000 1.000000 0.000000 1.000000 0.000000 -1.000000 0.000000 0.000000 11477.dat
1 0 20.000840 -272.000000 29.999960 0.000000 0.000000 1.000000 0.000000 1.000000 0.000000 -1.000000 0.000000 0.000000 11477.dat
1 0 20.000840 -272.000000 49.999960 0.000000 0.000000 1.000000 0.000000 1.000000 0.000000 -1.000000 0.000000 0.000000 11477.dat
