1 0 0.000850 -196.000000 67.999940 -1.000000 0.000000 0.000000 0.000000 0.000000 -1.000000 0.000000 -1.000000 0.000000 3795.dat
1 0 -67.999140 -236.000000 0.000180 0.000000 1.000000 0.000000 0.000000 0.000000 -1.000000 -1.000000 0.000000 0.000000 3795.dat
1 0 -67.999140 -196.000000 30.000180 0.000000 1.000000 0.000000 0.000000 0.000000 1.000000 1.000000 0.000000 0.000000 3021.dat
1 0 0.000850 -236.000000 67.999940 -1.000000 0.000000 0.000000 0.000000 0.000000 -1.000000 0.000000 -1.000000 0.000000 3795.dat
1 0 68.000850 -236.000000 -0.000070 0.000000 -1.000000 0.000000 0.000000 0.000000 -1.000000 1.000000 0.000000 0.000000 3795.dat
1 0 68.000850 -196.000000 29.999930 0.000000 -1.000000 0.000000 0.000000 0.000000 1.000000 -1.000000 0.000000 0.000000 3021.dat
1 SKIN -67.999140 -196.000000 -30.000070 0.000000 1.000000 0.000000 0.000000 0.000000 1.000000 1.000000 0.000000 0.000000 3021.dat
1 SKIN -67.999140 -156.000000 29.999930 0.000000 1.000000 0.000000 0.000000 0.000000 1.000000 1.000000 0.000000 0.000000 3021.dat
1 SKIN 68.000850 -196.000000 -30.000070 0.000000 -1.000000 0.000000 0.000000 0.000000 1.000000 -1.000000 0.000000 0.000000 3021.dat
1 SKIN 68.000850 -156.000000 29.999930 0.000000 -1.000000 0.000000 0.000000 0.000000 1.000000 -1.000000 0.000000 0.000000 3021.dat
1 0 -29.999160 -156.000000 67.999920 1.000000 0.000000 0.000000 0.000000 0.000000 1.000000 0.000000 -1.000000 0.000000 3021.dat
1 0 30.000860 -156.000000 67.999880 1.000000 0.000000 0.000000 0.000000 0.000000 1.000000 0.000000 -1.000000 0.000000 3021.dat
1 0 30.000870 -280.000000 -40.000020 0.000000 0.000000 -1.000000 0.000000 1.000000 0.000000 1.000000 0.000000 0.000000 24309.dat
1 0 30.000850 -280.000000 -0.000050 0.000000 0.000000 -1.000000 0.000000 1.000000 0.000000 1.000000 0.000000 0.000000 24309.dat
1 0 -29.999140 -280.000000 -40.000040 0.000000 0.000000 1.000000 0.000000 1.000000 0.000000 -1.000000 0.000000 0.000000 24309.dat
1 0 -29.999150 -280.000000 -0.000050 0.000000 0.000000 1.000000 0.000000 1.000000 0.000000 -1.000000 0.000000 0.000000 24309.dat
1 0 -29.999170 -280.000000 39.999950 0.000000 0.000000 1.000000 0.000000 1.000000 0.000000 -1.000000 0.000000 0.000000 24309.dat
1 0 30.000830 -280.000000 39.999970 0.000000 0.000000 -1.000000 0.000000 1.000000 0.000000 1.000000 0.000000 0.000000 24309.dat
1 0 76.000850 -226.000000 -0.000070 0.000000 -1.000000 0.000000 0.000000 0.000000 -1.000000 1.000000 0.000000 0.000000 2431.dat
1 0 76.000850 -226.000000 -50.000070 0.000000 -1.000000 0.000000 1.000000 0.000000 0.000000 0.000000 0.000000 1.000000 63864.dat
1 0 76.000850 -246.000000 -0.000070 0.000000 -1.000000 0.000000 0.000000 0.000000 -1.000000 1.000000 0.000000 0.000000 2431.dat
1 0 76.000850 -236.000000 49.999940 0.000000 -1.000000 0.000000 1.000000 0.000000 0.000000 0.000000 0.000000 1.000000 3069b.dat
1 0 -75.999160 -226.000000 -49.999820 0.000000 1.000000 0.000000 -1.000000 0.000000 0.000000 0.000000 0.000000 1.000000 63864.dat
1 0 -75.999140 -226.000000 0.000180 0.000000 1.000000 0.000000 0.000000 0.000000 1.000000 1.000000 0.000000 0.000000 2431.dat
1 0 -75.999140 -246.000000 0.000180 0.000000 1.000000 0.000000 0.000000 0.000000 1.000000 1.000000 0.000000 0.000000 2431.dat
1 0 -49.999150 -196.000000 75.999950 0.000000 0.000000 -1.000000 1.000000 0.000000 0.000000 0.000000 -1.000000 0.000000 2431.dat
1 0 -29.999150 -196.000000 75.999940 0.000000 0.000000 -1.000000 1.000000 0.000000 0.000000 0.000000 -1.000000 0.000000 2431.dat
1 0 -9.999149 -196.000000 75.999940 0.000000 0.000000 -1.000000 1.000000 0.000000 0.000000 0.000000 -1.000000 0.000000 2431.dat
1 0 10.000850 -196.000000 75.999940 0.000000 0.000000 -1.000000 1.000000 0.000000 0.000000 0.000000 -1.000000 0.000000 2431.dat
1 0 30.000850 -196.000000 75.999940 0.000000 0.000000 -1.000000 1.000000 0.000000 0.000000 0.000000 -1.000000 0.000000 2431.dat
1 0 50.000850 -196.000000 75.999940 0.000000 0.000000 -1.000000 1.000000 0.000000 0.000000 0.000000 -1.000000 0.000000 2431.dat
1 0 0.000850 -246.000000 75.999960 1.000000 0.000000 0.000000 0.000000 0.000000 1.000000 0.000000 -1.000000 0.000000 6636.dat
1 0 -75.999130 -236.000000 50.000180 0.000000 1.000000 0.000000 1.000000 0.000000 0.000000 0.000000 0.000000 -1.000000 3069b.dat
1 0 0.000860 -264.000000 -0.000010 0.000000 0.000000 -1.000000 0.000000 1.000000 0.000000 1.000000 0.000000 0.000000 3795.dat
1 0 76.000850 -206.000000 29.999930 0.000000 -1.000000 0.000000 1.000000 0.000000 0.000000 0.000000 0.000000 1.000000 3070b.dat
1 0 -75.999140 -206.000000 30.000180 0.000000 1.000000 0.000000 -1.000000 0.000000 0.000000 0.000000 0.000000 1.000000 3070b.dat
1 0 -75.999140 -156.000000 -50.000070 0.000000 1.000000 0.000000 -1.000000 0.000000 0.000000 0.000000 0.000000 1.000000 2431.dat
1 0 76.000850 -166.000000 9.999920 0.000000 -1.000000 0.000000 1.000000 0.000000 0.000000 0.000000 0.000000 1.000000 27925.dat
1 0 76.000840 -166.000000 9.999929 0.000000 -1.000000 0.000000 1.000000 0.000000 0.000000 0.000000 0.000000 1.000000 25269.dat
1 0 76.000850 -196.000000 9.999929 0.000000 -1.000000 0.000000 1.000000 0.000000 0.000000 0.000000 0.000000 1.000000 3069b.dat
1 0 76.000850 -196.000000 -10.000070 0.000000 -1.000000 0.000000 1.000000 0.000000 0.000000 0.000000 0.000000 1.000000 3069b.dat
1 0 -75.999140 -166.000000 9.999940 0.000000 1.000000 0.000000 0.000000 0.000000 -1.000000 -1.000000 0.000000 0.000000 27925.dat
1 0 -75.999140 -166.000000 9.999929 0.000000 1.000000 0.000000 0.000000 0.000000 -1.000000 -1.000000 0.000000 0.000000 25269.dat
1 0 -75.999140 -196.000000 10.000180 0.000000 1.000000 0.000000 1.000000 0.000000 0.000000 0.000000 0.000000 -1.000000 3069b.dat
1 0 -75.999140 -196.000000 -10.000070 0.000000 1.000000 0.000000 1.000000 0.000000 0.000000 0.000000 0.000000 -1.000000 3069b.dat
1 0 76.000850 -156.000000 -50.000070 0.000000 -1.000000 0.000000 -1.000000 0.000000 0.000000 0.000000 0.000000 -1.000000 2431.dat
1 0 76.000840 -156.000000 -30.000070 0.000000 -1.000000 0.000000 1.000000 0.000000 0.000000 0.000000 0.000000 1.000000 6636.dat
1 0 -75.999130 -156.000000 -30.000070 0.000000 1.000000 0.000000 -1.000000 0.000000 0.000000 0.000000 0.000000 1.000000 6636.dat
1 0 76.000840 -156.000000 49.999940 0.000000 -1.000000 0.000000 1.000000 0.000000 0.000000 0.000000 0.000000 1.000000 6636.dat
1 0 76.000850 -136.000000 29.999930 0.000000 -1.000000 0.000000 1.000000 0.000000 0.000000 0.000000 0.000000 1.000000 6636.dat
1 0 -75.999130 -136.000000 29.999930 0.000000 1.000000 0.000000 -1.000000 0.000000 0.000000 0.000000 0.000000 1.000000 6636.dat
1 0 -75.999130 -156.000000 50.000180 0.000000 1.000000 0.000000 -1.000000 0.000000 0.000000 0.000000 0.000000 1.000000 6636.dat
1 0 40.000850 -116.000000 75.999850 0.000000 0.000000 1.000000 -1.000000 0.000000 0.000000 0.000000 -1.000000 0.000000 87079.dat
1 0 0.000840 -116.000000 75.999980 0.000000 0.000000 1.000000 -1.000000 0.000000 0.000000 0.000000 -1.000000 0.000000 87079.dat
1 0 -39.999160 -116.000000 76.000000 0.000000 0.000000 1.000000 -1.000000 0.000000 0.000000 0.000000 -1.000000 0.000000 87079.dat
