1 SKIN 30.000860 -155.999800 67.999940 -1.000000 0.000000 0.000000 0.000000 0.000000 -1.000000 0.000000 -1.000000 0.000000 26603.dat
1 0 0.000850 -196.000000 67.999940 -1.000000 0.000000 0.000000 0.000000 0.000000 -1.000000 0.000000 -1.000000 0.000000 3795.dat
1 SKIN -67.999140 -156.000000 29.999930 0.000000 1.000000 0.000000 0.000000 0.000000 -1.000000 -1.000000 0.000000 0.000000 26603.dat
1 SKIN -67.999140 -196.000000 -30.000070 0.000000 1.000000 0.000000 0.000000 0.000000 -1.000000 -1.000000 0.000000 0.000000 26603.dat
1 SKIN -29.999140 -156.000000 67.999940 -1.000000 0.000000 0.000000 0.000000 0.000000 -1.000000 0.000000 -1.000000 0.000000 26603.dat
1 SKIN 68.000850 -156.000000 29.999930 0.000000 -1.000000 0.000000 0.000000 0.000000 -1.000000 1.000000 0.000000 0.000000 26603.dat
1 SKIN 68.000850 -196.000000 -30.000070 0.000000 -1.000000 0.000000 0.000000 0.000000 -1.000000 1.000000 0.000000 0.000000 26603.dat
1 0 0.000850 -236.000000 67.999940 -1.000000 0.000000 0.000000 0.000000 0.000000 -1.000000 0.000000 -1.000000 0.000000 3795.dat
1 0 0.000850 -264.000000 -0.000050 0.000000 0.000000 -1.000000 0.000000 1.000000 0.000000 1.000000 0.000000 0.000000 3958.dat
1 0 50.000860 -272.000000 -40.000050 0.000000 0.000000 1.000000 0.000000 1.000000 0.000000 -1.000000 0.000000 0.000000 2412b.dat
1 0 50.000860 -272.000000 -0.000050 0.000000 0.000000 1.000000 0.000000 1.000000 0.000000 -1.000000 0.000000 0.000000 2412b.dat
1 0 50.000860 -272.000000 39.999960 0.000000 0.000000 1.000000 0.000000 1.000000 0.000000 -1.000000 0.000000 0.000000 2412b.dat
1 0 -49.999150 -272.000000 39.999960 0.000000 0.000000 1.000000 0.000000 1.000000 0.000000 -1.000000 0.000000 0.000000 2412b.dat
1 0 -49.999150 -272.000000 -0.000050 0.000000 0.000000 1.000000 0.000000 1.000000 0.000000 -1.000000 0.000000 0.000000 2412b.dat
1 0 -49.999150 -272.000000 -40.000060 0.000000 0.000000 1.000000 0.000000 1.000000 0.000000 -1.000000 0.000000 0.000000 2412b.dat
1 0 50.000850 -236.000000 75.999940 0.000000 0.000000 1.000000 -1.000000 0.000000 0.000000 0.000000 -1.000000 0.000000 2412b.dat
1 0 50.000850 -196.000000 75.999940 0.000000 0.000000 1.000000 -1.000000 0.000000 0.000000 0.000000 -1.000000 0.000000 2412b.dat
1 0 -49.999160 -236.000000 75.999940 0.000000 0.000000 1.000000 -1.000000 0.000000 0.000000 0.000000 -1.000000 0.000000 2412b.dat
1 0 -49.999160 -196.000000 75.999940 0.000000 0.000000 1.000000 -1.000000 0.000000 0.000000 0.000000 -1.000000 0.000000 2412b.dat
1 0 0.000850 -279.875000 -0.000050 1.000000 0.000000 0.000000 0.000000 1.000000 0.000000 0.000000 0.000000 1.000000 3031.dat
1 0 0.000850 -287.875000 -0.000050 1.000000 0.000000 0.000000 0.000000 1.000000 0.000000 0.000000 0.000000 1.000000 87079.dat
1 0 30.000850 -271.875000 -40.000050 1.000000 0.000000 0.000000 0.000000 1.000000 0.000000 0.000000 0.000000 1.000000 11477.dat
1 0 10.000850 -271.875000 -40.000050 1.000000 0.000000 0.000000 0.000000 1.000000 0.000000 0.000000 0.000000 1.000000 11477.dat
1 0 -9.999149 -271.875000 -40.000050 1.000000 0.000000 0.000000 0.000000 1.000000 0.000000 0.000000 0.000000 1.000000 11477.dat
1 0 -29.999150 -271.875000 -40.000050 1.000000 0.000000 0.000000 0.000000 1.000000 0.000000 0.000000 0.000000 1.000000 11477.dat
1 0 68.000850 -246.000000 39.999930 0.000000 -1.000000 0.000000 0.000000 0.000000 1.000000 -1.000000 0.000000 0.000000 2412b.dat
1 0 68.000850 -226.000000 39.999930 0.000000 -1.000000 0.000000 0.000000 0.000000 1.000000 -1.000000 0.000000 0.000000 2412b.dat
1 0 68.000850 -246.000000 -0.000070 0.000000 -1.000000 0.000000 0.000000 0.000000 1.000000 -1.000000 0.000000 0.000000 2412b.dat
1 0 68.000850 -246.000000 -40.000070 0.000000 -1.000000 0.000000 0.000000 0.000000 1.000000 -1.000000 0.000000 0.000000 2412b.dat
1 0 0.000850 -216.000000 75.999940 1.000000 0.000000 0.000000 0.000000 0.000000 1.000000 0.000000 -1.000000 0.000000 3020.dat
1 0 -29.999150 -236.000000 67.999950 1.000000 0.000000 0.000000 0.000000 0.000000 1.000000 0.000000 -1.000000 0.000000 11477.dat
1 0 -9.999149 -236.000000 67.999940 1.000000 0.000000 0.000000 0.000000 0.000000 1.000000 0.000000 -1.000000 0.000000 11477.dat
1 0 10.000850 -236.000000 67.999940 1.000000 0.000000 0.000000 0.000000 0.000000 1.000000 0.000000 -1.000000 0.000000 11477.dat
1 0 30.000850 -236.000000 67.999940 1.000000 0.000000 0.000000 0.000000 0.000000 1.000000 0.000000 -1.000000 0.000000 11477.dat
1 0 30.000850 -196.000000 67.999950 -1.000000 0.000000 0.000000 0.000000 0.000000 -1.000000 0.000000 -1.000000 0.000000 11477.dat
1 0 10.000850 -196.000000 67.999940 -1.000000 0.000000 0.000000 0.000000 0.000000 -1.000000 0.000000 -1.000000 0.000000 11477.dat
1 0 -9.999149 -196.000000 67.999940 -1.000000 0.000000 0.000000 0.000000 0.000000 -1.000000 0.000000 -1.000000 0.000000 11477.dat
1 0 -29.999150 -196.000000 67.999940 -1.000000 0.000000 0.000000 0.000000 0.000000 -1.000000 0.000000 -1.000000 0.000000 11477.dat
1 0 -67.999130 -246.000000 40.000180 0.000000 1.000000 0.000000 0.000000 0.000000 1.000000 1.000000 0.000000 0.000000 2412b.dat
1 0 -67.999140 -226.000000 40.000180 0.000000 1.000000 0.000000 0.000000 0.000000 1.000000 1.000000 0.000000 -0.000001 2412b.dat
1 0 -67.999140 -246.000000 0.000180 0.000000 1.000000 0.000000 0.000000 0.000000 1.000000 1.000000 0.000000 -0.000001 2412b.dat
1 0 -67.999140 -246.000000 -39.999820 0.000000 1.000000 0.000000 0.000000 0.000000 1.000000 1.000000 0.000000 -0.000001 2412b.dat
1 SKIN -67.999140 -226.000000 -19.999820 0.000000 1.000000 0.000000 0.000000 0.000000 -1.000000 -1.000000 0.000000 0.000000 2431.dat
1 SKIN 68.000850 -226.000000 -20.000070 0.000000 -1.000000 0.000000 0.000000 0.000000 -1.000000 1.000000 0.000000 0.000000 2431.dat
1 SKIN -67.999140 -196.000000 30.000180 0.000000 1.000000 0.000000 0.000000 0.000000 -1.000000 -1.000000 0.000000 0.000000 26603.dat
1 SKIN 68.000850 -196.000000 29.999930 0.000000 -1.000000 0.000000 0.000000 0.000000 -1.000000 1.000000 0.000000 0.000000 26603.dat
1 0 -29.999150 -271.875000 39.999950 -1.000000 0.000000 0.000000 0.000000 1.000000 0.000000 0.000000 0.000000 -1.000000 11477.dat
1 0 -9.999149 -271.875000 39.999960 -1.000000 0.000000 0.000000 0.000000 1.000000 0.000000 0.000000 0.000000 -1.000000 11477.dat
1 0 10.000850 -271.875000 39.999950 -1.000000 0.000000 0.000000 0.000000 1.000000 0.000000 0.000000 0.000000 -1.000000 11477.dat
1 0 30.000850 -271.875000 39.999950 -1.000000 0.000000 0.000000 0.000000 1.000000 0.000000 0.000000 0.000000 -1.000000 11477.dat
1 0 0.000850 -272.000000 -40.000050 1.000000 0.000000 0.000000 0.000000 1.000000 0.000000 0.000000 0.000000 1.000000 3020.dat
1 0 0.000850 -272.000000 -0.000050 1.000000 0.000000 0.000000 0.000000 1.000000 0.000000 0.000000 0.000000 1.000000 3020.dat
1 0 0.000850 -272.000000 39.999950 1.000000 0.000000 0.000000 0.000000 1.000000 0.000000 0.000000 0.000000 1.000000 3020.dat
