1 SKIN 40.000010 -216.000000 50.000240 -1.000000 0.000000 0.000000 0.000000 1.000000 0.000000 0.000000 0.000000 -1.000000 22885.dat
1 SKIN 0.000000 -216.000000 50.000240 -1.000000 0.000000 0.000000 0.000000 1.000000 0.000000 0.000000 0.000000 -1.000000 22885.dat
1 SKIN -39.999980 -216.000000 50.000240 -1.000000 0.000000 0.000000 0.000000 1.000000 0.000000 0.000000 0.000000 -1.000000 22885.dat
1 SKIN 50.000020 -216.000000 20.000240 0.000000 0.000000 -1.000000 0.000000 1.000000 0.000000 1.000000 0.000000 0.000000 22885.dat
1 SKIN 50.000020 -216.000000 -19.999760 0.000001 0.000000 -1.000000 0.000000 1.000000 0.000000 1.000000 0.000000 0.000001 22885.dat
1 SKIN 40.000010 -215.999900 -49.999760 1.000003 0.000000 0.000001 0.000000 1.000000 0.000000 -0.000001 0.000000 1.000003 22885.dat
1 SKIN 0.000000 -216.000000 -49.999760 1.000001 0.000000 0.000001 0.000000 1.000000 0.000000 -0.000001 0.000000 1.000001 22885.dat
1 SKIN -39.999980 -216.000000 -49.999770 1.000002 0.000000 0.000001 0.000000 1.000000 0.000000 -0.000001 0.000000 1.000002 22885.dat
1 SKIN -49.999980 -216.000000 20.000490 0.000000 0.000000 1.000000 0.000000 1.000000 0.000000 -1.000000 0.000000 0.000000 22885.dat
1 SKIN -49.999980 -216.000000 -19.999760 0.000000 0.000000 1.000000 0.000000 1.000000 0.000000 -1.000000 0.000000 0.000000 22885.dat
1 SKIN -49.999980 -256.000000 20.000490 0.000000 0.000000 1.000004 0.000000 1.000000 0.000000 -1.000004 0.000000 0.000000 22885.dat
1 SKIN -49.999980 -255.999800 -19.999760 0.000000 0.000000 1.000000 0.000000 1.000000 0.000000 -1.000000 0.000000 0.000000 22885.dat
1 SKIN 40.000010 -256.000000 50.000240 -1.000000 0.000000 0.000000 0.000000 1.000000 0.000000 0.000000 0.000000 -1.000000 22885.dat
1 SKIN 0.000000 -256.000000 50.000240 -1.000000 0.000000 0.000000 0.000000 1.000000 0.000000 0.000000 0.000000 -1.000000 22885.dat
1 SKIN -39.999980 -256.000000 50.000240 -1.000000 0.000000 0.000000 0.000000 1.000000 0.000000 0.000000 0.000000 -1.000000 22885.dat
1 SKIN 50.000020 -256.000000 20.000240 0.000000 0.000000 -1.000000 0.000000 1.000000 0.000000 1.000000 0.000000 0.000000 22885.dat
1 SKIN 50.000020 -255.999800 -19.999760 0.000001 0.000000 -1.000000 0.000000 1.000000 0.000000 1.000000 0.000000 0.000001 22885.dat
1 SKIN 40.000010 -255.999800 -49.999760 1.000003 0.000000 0.000001 0.000000 1.000000 0.000000 -0.000001 0.000000 1.000003 22885.dat
1 SKIN 0.000000 -255.999800 -49.999760 1.000001 0.000000 0.000001 0.000000 1.000000 0.000000 -0.000001 0.000000 1.000001 22885.dat
1 SKIN -39.999980 -255.999800 -49.999770 1.000002 0.000000 0.000001 0.000000 1.000000 0.000000 -0.000001 0.000000 1.000002 22885.dat
1 SKIN 0.000000 -186.000100 -67.999530 1.000000 0.000000 0.000000 0.000000 0.000000 -0.999993 0.000000 0.999993 0.000000 3794b.dat
1 SKIN -39.999980 -186.000300 -67.999780 1.000000 0.000000 0.000000 0.000000 0.000000 -1.000000 0.000000 1.000000 0.000000 3069b.dat
1 SKIN 40.000010 -186.000200 -68.000020 1.000000 0.000000 0.000000 0.000000 0.000000 -0.999996 0.000000 0.999996 0.000000 3069b.dat
1 SKIN 0.000000 -225.999800 -67.999760 1.000000 0.000000 0.000000 0.000000 0.000000 -0.999997 0.000000 0.999997 0.000000 3069b.dat
1 SKIN -39.999980 -246.000300 -67.999780 1.000000 0.000000 0.000000 0.000000 0.000000 -1.000000 0.000000 1.000000 0.000000 3069b.dat
1 SKIN 0.000000 -246.000300 -67.999760 1.000000 0.000000 0.000000 0.000000 0.000000 -1.000000 0.000000 1.000000 0.000000 3069b.dat
1 SKIN 40.000010 -246.000300 -67.999780 1.000000 0.000000 0.000000 0.000000 0.000000 -1.000000 0.000000 1.000000 0.000000 3069b.dat
1 15 50.000020 -206.000200 -67.999760 1.000000 0.000000 0.000000 0.000000 0.000000 -0.999999 0.000000 1.000000 0.000000 3070b.dat
1 15 -49.999980 -206.000200 -67.999780 1.000000 0.000000 0.000000 0.000000 0.000000 -0.999999 0.000000 1.000000 0.000000 3070b.dat
